<svg width="996.31191" height="510.67557" xmlns="http://www.w3.org/2000/svg">

 <g>
  <title>background</title>
  <rect fill="none" id="canvas_background" height="602" width="802" y="-1" x="-1"/>
 </g>
 <g>
  <title>Layer 1</title>
  <polygon id="svg_1" fill="#8989fb" points="496.32598876953125,128.0279998779297 496.29998779296875,128.20199584960938 496.22900390625,128.7050018310547 488.9020080566406,181.2830047607422 444.0379943847656,197.74400329589844 443.3349914550781,197.4080047607422 418.2170104980469,185.47900390625 405.22900390625,135.64500427246094 404.3389892578125,132.2239990234375 404.6099853515625,132.1199951171875 460.1759948730469,111.24400329589844 496.2929992675781,128.00799560546875 496.32598876953125,128.0279998779297 "/>
  <polygon id="svg_2" fill="#8989fb" points="443.3349914550781,197.4080047607422 418.2170104980469,185.47900390625 404.3389892578125,132.2239990234375 404.6099853515625,132.1199951171875 440.8110046386719,147.39300537109375 443.3349914550781,197.4080047607422 "/>
  <polygon id="svg_3" opacity="0.2" points="443.9649963378906,196.8000030517578 424.8590087890625,160.18600463867188 427.31298828125,149.80599975585938 415.7560119628906,136.19700622558594 414.7720031738281,137.0330047607422 425.906005859375,150.1439971923828 417.5889892578125,185.3300018310547 418.84600830078125,185.6280059814453 424.4049987792969,162.10699462890625 442.82000732421875,197.39700317382812 443.9649963378906,196.8000030517578 "/>
  <polygon id="svg_4" fill="#3f3d56" points="496.32598876953125,128.67300415039062 496.22900390625,128.7050018310547 440.8110046386719,148.03900146484375 405.22900390625,135.64500427246094 404.3389892578125,132.2239990234375 404.6099853515625,132.1199951171875 460.1759948730469,111.24400329589844 496.2929992675781,128.00799560546875 496.29998779296875,128.20199584960938 496.32598876953125,128.67300415039062 "/>
  <polygon id="svg_5" fill="#8989fb" points="441.77899169921875,149.0070037841797 430.48199462890625,140.29299926757812 433.0639953613281,130.61000061035156 465.3399963378906,118.98999786376953 487.2879943847656,120.28099822998047 496.00299072265625,127.70500183105469 496.64801025390625,129.6409912109375 441.77899169921875,149.0070037841797 "/>
  <polygon id="svg_6" fill="#8989fb" points="404.9840087890625,132.2239990234375 430.48199462890625,131.2550048828125 444.2950134277344,126.56700134277344 465.83099365234375,118.98999786376953 469.8590087890625,113.18099975585938 459.8089904785156,111.38200378417969 404.9840087890625,132.2239990234375 "/>
  <rect id="svg_7" fill="#ccc" transform="rotate(-19.3376, -175.863, 7.76571)" height="1.29074" width="14.08994" y="324.56056" x="368.28739"/>
  <polygon id="svg_8" fill="#9f616a" points="280.6679992675781,46.34400177001953 274.43499755859375,77.50700378417969 303.52099609375,99.3219985961914 317.0260009765625,58.808998107910156 280.6679992675781,46.34400177001953 "/>
  <circle id="svg_9" fill="#9f616a" r="28.04729" cy="46.86323" cx="304.04072"/>
  <path id="svg_10" fill="#2f2e41" d="m243.27158,259.37307c0.12826,9.04888 39.539,109.75747 34.067,122.871c-8.62565,8.81723 -27.17952,55.74726 -35.10643,68.26672c-1.03814,-0.00064 -6.23209,15.58119 -6.23209,15.58119s12.46547,19.737 25.96972,11.42667c16.98028,-39.937 59.50573,-62.21128 60.25713,-114.26323c2.05257,16.44306 8.11167,121.98865 8.11167,121.98865s-1.16216,0.49347 25,3c4.06168,-61.25756 20.66016,-165.47535 -16.49993,-230.94948c-11.42519,-5.19304 -95.56707,2.07848 -95.56707,2.07848z"/>
  <path id="svg_11" fill="#2f2e41" d="m330.33683,483.18968c-1.21444,2.33546 -9.9238,23.89289 -1.99825,26.05441c9.14,2.49272 18,-1 18,-1s16,5 25.79186,-1.35462c4.57,-4.57 3.53136,-8.72453 1.35022,-11.73657a12.72274,12.72274 0 0 0 -9.43858,-5.08761c-4.969,-0.3543 -6.547,-1.27527 -7.1162,-3.552c-0.83093,-3.32361 -26.58905,-3.32361 -26.58905,-3.32361z"/>
  <path id="svg_12" fill="#2f2e41" d="m244.86379,464.36478s-22.32655,7.05049 -17.62622,15.276a30.91256,30.91256 0 0 0 12.83814,11.83857s4.65644,19.19621 17.58234,19.19621c6.463,0 8.66622,-3.67213 9.25376,-7.34426a12.72274,12.72274 0 0 0 -3.0766,-10.27157c-3.26308,-3.76413 -3.72769,-5.53119 -2.52028,-7.54354c1.76262,-2.93769 -16.45114,-21.15141 -16.45114,-21.15141z"/>
  <path id="svg_13" fill="#e6e6e6" d="m344.03859,262.41407s-4.16,8.31 -20.78,5.19c-16.62,-3.11 -82.06,0 -82.06,0s3.63,-74.27 -4.68,-118.94s24.41,-70.12 24.41,-70.12l10.39,-10.39c10.39,-1.03 32.33,31.21 32.33,31.21c7.22,1.21 13.96,31.9 19.71,60.94c0.34,1.66 0.66,3.3 0.98,4.94c2.65,13.54 6.34,28.61 8.55,42.14c0.16,0.96 0.31,1.91 0.45,2.86a494.56274,494.56274 0 0 0 10.7,52.17z"/>
  <path id="svg_14" fill="#2f2e41" d="m271.22903,29.39928s-5.24388,-11.53654 8.39022,-16.78043c0,0 11.53654,-18.878 34.60961,-6.29265c0,0 15.73165,6.29265 15.73165,23.07308s5.24388,19.92675 5.24388,19.92675s-7.80905,-8.01137 -9.9066,-14.304s-18.41036,-7.72028 -24.703,-1.42762s-22.0243,5.24388 -22.0243,5.24388l1.04878,23.07308s-5.24389,-13.63409 -7.34144,-13.63409s-4.19512,-18.878 -1.0488,-18.878z"/>
  <path id="svg_15" opacity="0.2" d="m332.88857,207.3841c-24.78,-13.47 -64.92,-43.01 -77.87,-58.99c-17.07,-21.05 1.55,-37.05 1.55,-37.05c21.11,-13.32 46.35,32.38 46.35,32.38l20.44,16.58c0.34,1.66 0.66,3.3 0.98,4.94c2.65003,13.53997 6.34003,28.60997 8.55,42.14z"/>
  <path id="svg_16" fill="#9f616a" d="m406.86211,191.86136s36.84,14.95552 42.90343,-1.85648s-29.08578,-16.52347 -29.08578,-16.52347l-13.799,1.95527l-0.01865,16.42468z"/>
  <path id="svg_17" fill="#e6e6e6" d="m251.84657,104.50278s-18.611,16.00934 -1.5532,37.05235s95.451,66.00443 95.451,66.00443l51.06366,-13.80439l14.45073,2.64438l2.7245,-27.13051l-21.28877,2.07816l-54.0413,-11.50672l-34.46008,-27.96117s-31.24209,-40.68937 -52.34654,-27.37653z"/>
  <polygon id="svg_18" opacity="0.2" points="319.64599609375,297.36199951171875 322.9020080566406,373.4429931640625 314.64599609375,297.36199951171875 319.64599609375,297.36199951171875 "/>
  <path id="svg_19" fill="#ffb9b9" d="m671.18152,241.93865l-29.55817,6.84884a9.01736,9.01736 0 0 1 -10.75861,-6.5l0,0a9.01736,9.01736 0 0 1 8.5135,-11.29956l28.55117,-0.664l3.25211,11.61472z"/>
  <path id="svg_20" fill="#3f3d56" d="m668.04338,246.27644l-6.56466,-19.694l39.35536,-13.44266l-10.44527,-91.98576l0,0c18.80625,3.41932 27.75663,18.2077 26.91826,37.30387l5.09144,62.76855l-54.35513,25.05z"/>
  <path id="svg_21" fill="#2f2e41" d="m695.23511,100.87367l64.2979,0l0,-31.97551a32.80042,32.80042 0 0 0 -9.417,-23.08849a31.69094,31.69094 0 0 0 -22.73419,-9.56558a32.19878,32.19878 0 0 0 -32.13694,31.8c-0.0049,0.29283 -0.0098,0.571 -0.0098,0.85411l0.00003,31.97547z"/>
  <path id="svg_22" fill="#2f2e41" d="m786.41795,476.63014l-20.55361,-2.35863l-24.59696,-166.11348l-50.87857,166.78737l-22.23831,0.67389l25.27081,-205.199l-3.70636,-46.83524l63.00855,-19.87972c44.62692,31.15305 43.70333,141.18781 33.69445,272.92481z"/>
  <circle id="svg_23" fill="#ffb9b9" r="24.25998" cy="70.27546" cx="721.72463"/>
  <path id="svg_24" fill="#ffb9b9" d="m745.9846,114.07819l-41.10719,10.78222c6.926,-13.31911 9.14216,-25.75254 5.39111,-37.06386l28.9772,-4.71722a42.27757,42.27757 0 0 0 6.73888,30.99886z"/>
  <path id="svg_25" fill="#3f3d56" d="m759.79931,212.80283c-23.056,14.66271 -49.91355,31.50708 -69.74744,15.16249l-9.43444,-45.82441c-7.49852,-6.67883 -4.17326,-27.28819 5.96362,-56.66433a12.99436,12.99436 0 0 1 8.05522,-8.04647l15.63225,-5.37358c6.928,5.82606 18.28449,2.35122 31.67275,-5.39111l15.49943,4.04333l6.73889,50.54163c-9.72779,14.57476 -8.02864,33.98147 -4.38028,51.55245z"/>
  <path id="svg_26" fill="#ffb9b9" d="m740.59202,232.50421l-29.55817,6.84885a9.01739,9.01739 0 0 1 -10.75862,-6.5l0,0a9.01737,9.01737 0 0 1 8.5135,-11.29957l28.55117,-0.664l3.25212,11.61472z"/>
  <path id="svg_27" fill="#2f2e41" d="m782.84546,508.38872c-3.452,1.57547 -6.34351,-8.18888 -9.25533,-5.32739c-8.14475,8.004 -27.68348,6.20984 -27.68348,6.20984a5.09135,5.09135 0 0 1 -3.20912,-6.63478l0,0a5.09135,5.09135 0 0 1 3.53235,-3.15164l8.66194,-2.16549l13.60049,-23.9181l14.82213,-1.87593l0.37437,0.61224a38.21709,38.21709 0 0 1 4.09544,31.25c-1.23265,3.94952 -2.91049,4.07555 -4.93879,5.00125z"/>
  <path id="svg_28" fill="#2f2e41" d="m685.13165,508.38872c-3.452,1.57547 -6.34351,-8.18888 -9.25532,-5.32739c-8.14476,8.004 -27.68349,6.20984 -27.68349,6.20984a5.09135,5.09135 0 0 1 -3.20912,-6.63478l0,0a5.09135,5.09135 0 0 1 3.53235,-3.15164l8.66194,-2.16549l13.60049,-23.9181l14.82213,-1.87593l0.37437,0.61224a38.21709,38.21709 0 0 1 4.09544,31.25c-1.23265,3.94952 -2.91049,4.07555 -4.93879,5.00125z"/>
  <path id="svg_29" fill="#2f2e41" d="m750.16488,50.04056l-6.11,19.4396l-52.82626,-0.93884a32.65551,32.65551 0 0 1 58.93629,-18.50076l-0.00003,0z"/>
  <path id="svg_30" fill="#3f3d56" d="m737.45388,236.84201l-6.56466,-19.694l39.35536,-13.44268l-14.88708,-93.97905l0,0a38.23684,38.23684 0 0 1 31.36,39.29716l5.09144,62.76854l-54.35506,25.05003z"/>
  <polygon id="svg_31" fill="#ccc" points="643.4550170898438,183.7480010986328 602.52197265625,192.55099487304688 594.1589965820312,152.2779998779297 609.5640258789062,131.59100341796875 623.427978515625,128.9499969482422 638.8330078125,144.5749969482422 643.4550170898438,183.7480010986328 "/>
  <polygon id="svg_32" fill="#e6e6e6" points="624.5289916992188,185.50399780273438 599.8790283203125,185.50399780273438 596.5189819335938,168.91400146484375 592.8389892578125,150.73399353027344 598.3389892578125,142.81399536132812 608.9089965820312,146.11399841308594 620.3489990234375,161.96400451660156 623.218994140625,178.11399841308594 623.4190063476562,179.26400756835938 624.5289916992188,185.50399780273438 "/>
  <polygon id="svg_33" fill="#ccc" points="665.9019775390625,175.8249969482422 637.5130004882812,179.12600708007812 642.5750122070312,143.03500366210938 654.0180053710938,132.6909942626953 663.9210205078125,135.11199951171875 670.5239868164062,150.2969970703125 665.9019775390625,175.8249969482422 "/>
  <polygon id="svg_34" fill="#e6e6e6" points="669.6389770507812,154.4739990234375 666.9990234375,169.00399780273438 658.4190063476562,218.51400756835938 625.4089965820312,229.08399963378906 624.2689819335938,228.46400451660156 606.47900390625,218.73399353027344 596.468994140625,168.8939971923828 596.5189819335938,168.91400146484375 622.989013671875,179.56399536132812 623.218994140625,178.11399841308594 623.3790283203125,177.06399536132812 625.4089965820312,164.16400146484375 634.4290161132812,154.4739990234375 664.5789794921875,147.21400451660156 669.6389770507812,154.4739990234375 "/>
  <circle id="svg_35" fill="#e6e6e6" r="7.04226" cy="145.89555" cx="648.73654"/>
  <rect id="svg_36" fill="#fff" transform="rotate(-10.0971, -151.067, -61.1685)" height="0.44008" width="16.31791" y="283.45094" x="566.04615"/>
  <polygon id="svg_37" fill="#f2f2f2" points="624.2689819335938,228.46400451660156 606.47900390625,218.73399353027344 596.468994140625,168.8939971923828 596.5189819335938,168.91400146484375 592.8389892578125,150.73399353027344 598.3389892578125,142.81399536132812 608.9089965820312,146.11399841308594 620.3489990234375,161.96400451660156 623.218994140625,178.11399841308594 623.3790283203125,177.06399536132812 623.4190063476562,179.26400756835938 623.5289916992188,185.50399780273438 624.2689819335938,228.46400451660156 "/>
  <polygon id="svg_38" fill="#ccc" points="606.6959838867188,218.79600524902344 606.27001953125,218.6820068359375 615.0449829101562,185.7760009765625 604.9970092773438,172.5290069580078 605.3480224609375,172.26300048828125 615.5260009765625,185.68099975585938 606.6959838867188,218.79600524902344 "/>
  <rect id="svg_39" fill="#ccc" transform="rotate(-25.7187, -207.654, 159.347)" height="32.16289" width="0.44005" y="551.52155" x="512.40007"/>
  <path id="svg_40" opacity="0.2" d="m667.90701,165.98841l-1.65273,9.13074l-0.08363,0.00879l-7.39877,42.68492l-33.01061,10.56339l-0.19806,0.09463l-0.132,-0.27509l-18.596,-10.16286l-0.21347,-0.05722l0.11443,-0.43134l-9.91422,-49.35745l0.05061,0.0198l-1.09815,-5.41814l0.82086,-1.18178l2.53742,-3.65317l10.56339,3.30106l11.44371,15.84509l0.16726,0.9419l1.20157,6.76058l0.482,2.71566l1.01893,5.73725l0.96831,-6.16419l0.34772,-2.2183l0.87588,-5.57219l9.02289,-9.68311l4.01189,-0.96612l2.7927,-0.67341l3.84244,-0.9243a7.04235,7.04235 0 1 1 9.6545,-2.32615l9.84816,-2.37235l2.42738,3.4837l0.10559,0.14966z"/>
  <polygon id="svg_41" fill="#e6e6e6" points="625.3209838867188,202.84800720214844 600.6729736328125,202.84800720214844 593.6309814453125,168.07699584960938 599.1329956054688,160.1540069580078 609.6959838867188,163.4550018310547 621.1400146484375,179.3000030517578 625.3209838867188,202.84800720214844 "/>
  <polygon id="svg_42" fill="#e6e6e6" points="659.2119750976562,235.85899353027344 626.2009887695312,246.4219970703125 607.2750244140625,236.07899475097656 597.2620239257812,186.23300170898438 623.781005859375,196.906005859375 626.2009887695312,181.50100708007812 635.2239990234375,171.8179931640625 665.3740234375,164.55599975585938 670.4359741210938,171.8179931640625 667.7949829101562,186.34300231933594 659.2119750976562,235.85899353027344 "/>
  <circle id="svg_43" fill="#e6e6e6" r="7.04226" cy="163.23533" cx="649.52891"/>
  <polygon id="svg_44" fill="#f2f2f2" points="625.0789794921875,245.46400451660156 607.2890014648438,235.73399353027344 597.2789916992188,185.8939971923828 597.3289794921875,185.91400146484375 593.6489868164062,167.73399353027344 599.1489868164062,159.81399536132812 609.718994140625,163.11399841308594 621.1589965820312,178.96400451660156 624.0289916992188,195.11399841308594 624.1890258789062,194.06399536132812 624.22900390625,196.26400756835938 624.3389892578125,202.50399780273438 625.0789794921875,245.46400451660156 "/>
  <polygon id="svg_45" fill="#ccc" points="607.4879760742188,236.13499450683594 607.06298828125,236.02200317382812 615.8380126953125,203.11500549316406 605.7890014648438,189.8679962158203 606.1400146484375,189.6020050048828 616.3189697265625,203.02099609375 607.4879760742188,236.13499450683594 "/>
  <rect id="svg_46" fill="#ccc" transform="rotate(-25.7187, -215.101, 161.408)" height="32.16289" width="0.44005" y="570.92297" x="505.74629"/>
  <polygon id="svg_47" fill="#ccc" points="901.455 465.094 860.522 473.897 852.159 433.624 867.564 412.937 881.428 410.296 896.833 425.921 901.455 465.094"/>
  <polygon id="svg_48" fill="#e6e6e6" points="882.529 466.85 857.879 466.85 854.519 450.26 850.839 432.08 856.339 424.16 866.909 427.46 878.349 443.31 881.219 459.46 881.419 460.61 882.529 466.85"/>
  <polygon id="svg_49" fill="#ccc" points="923.902 457.171 895.513 460.473 900.575 424.381 912.018 414.038 921.921 416.458 928.524 431.643 923.902 457.171"/>
  <polygon id="svg_50" fill="#e6e6e6" points="927.639 435.82 924.999 450.35 916.419 499.86 883.409 510.43 882.269 509.81 864.479 500.08 854.469 450.24 854.519 450.26 880.989 460.91 881.219 459.46 881.379 458.41 883.409 445.51 892.429 435.82 922.579 428.56 927.639 435.82"/>
  <circle id="svg_51" fill="#e6e6e6" r="7.04226" cy="427.24186" cx="906.73654"/>
  <rect id="svg_52" fill="#fff" transform="rotate(-10.0971, -196.572, -12.5636)" height="0.44008" width="16.31791" y="614.40212" x="778.54184"/>
  <polygon id="svg_53" fill="#f2f2f2" points="882.269 509.81 864.479 500.08 854.469 450.24 854.519 450.26 850.839 432.08 856.339 424.16 866.909 427.46 878.349 443.31 881.219 459.46 881.379 458.41 881.419 460.61 881.529 466.85 882.269 509.81"/>
  <polygon id="svg_54" fill="#ccc" points="864.696 500.142 864.27 500.029 873.045 467.122 862.997 453.875 863.348 453.609 873.526 467.027 864.696 500.142"/>
  <rect id="svg_55" fill="#ccc" transform="rotate(-25.7187, -304.621, 298.277)" height="32.16289" width="0.44005" y="972.79828" x="673.43365"/>
  <polygon id="svg_56" fill="#e6e6e6" points="982.339 506.59 955.339 506.59 951.339 454.59 986.339 454.59 982.339 506.59"/>
  <rect id="svg_57" fill="#f2f2f2" height="8" width="36" y="475.5904" x="950.83858"/>
  <polygon id="svg_58" fill="#ccc" points="996.089 458.323 990.333 456.628 990.259 454.521 964.679 446.986 963.474 448.716 957.719 447.021 954.105 452.211 996.312 464.644 996.089 458.323"/>
  <polygon id="svg_59" fill="#8989fb" points="149.326 440.959 149.3 441.133 149.229 441.637 141.902 494.215 97.038 510.676 96.335 510.34 71.217 498.411 58.229 448.576 57.339 445.155 57.61 445.052 113.176 424.176 149.293 440.94 149.326 440.959"/>
  <polygon id="svg_60" fill="#8989fb" points="96.335 510.34 71.217 498.411 57.339 445.155 57.61 445.052 93.811 460.325 96.335 510.34"/>
  <polygon id="svg_61" opacity="0.2" points="96.965 509.731 77.859 473.117 80.313 462.738 68.756 449.128 67.772 449.964 78.906 463.076 70.589 498.262 71.846 498.559 77.405 475.039 95.82 510.329 96.965 509.731"/>
  <polygon id="svg_62" fill="#3f3d56" points="149.326 441.605 149.229 441.637 93.811 460.97 58.229 448.576 57.339 445.155 57.61 445.052 113.176 424.176 149.293 440.94 149.3 441.133 149.326 441.605"/>
  <polygon id="svg_63" fill="#8989fb" points="94.779 461.939 83.482 453.224 86.064 443.541 118.34 431.922 140.288 433.213 149.003 440.636 149.648 442.573 94.779 461.939"/>
  <polygon id="svg_64" fill="#8989fb" points="57.984 445.155 83.482 444.187 97.295 439.498 118.831 431.922 122.859 426.112 112.809 424.314 57.984 445.155"/>
  <rect id="svg_65" fill="#ccc" transform="rotate(-19.3376, -299.724, -91.3704)" height="1.29074" width="14.08994" y="540.35591" x="-102.57336"/>
  <polygon id="svg_66" fill="#8989fb" points="36 507.786 9 507.786 5 455.786 40 455.786 36 507.786"/>
  <rect id="svg_67" fill="#e6e6e6" height="8" width="36" y="476.78581" x="4.5"/>
  <polygon id="svg_68" fill="#3f3d56" points="42 452.786 36 452.786 35.333 450.786 8.667 450.786 8 452.786 2 452.786 0 458.786 44 458.786 42 452.786"/>
 </g>
</svg>