<svg xmlns="http://www.w3.org/2000/svg" viewBox="0 0 1010.65 1242.52"><defs><style>.cls-1{fill:#fff;}.cls-2,.cls-36,.cls-38{fill:#232323;}.cls-3,.cls-4,.cls-5,.cls-6{fill:#f98633;}.cls-4,.cls-5,.cls-6{stroke:#f98633;}.cls-10,.cls-12,.cls-13,.cls-14,.cls-16,.cls-17,.cls-18,.cls-20,.cls-21,.cls-22,.cls-24,.cls-25,.cls-26,.cls-28,.cls-29,.cls-30,.cls-32,.cls-33,.cls-34,.cls-35,.cls-36,.cls-4,.cls-5,.cls-6,.cls-8,.cls-9{stroke-linecap:round;}.cls-10,.cls-12,.cls-14,.cls-16,.cls-18,.cls-20,.cls-22,.cls-24,.cls-26,.cls-28,.cls-30,.cls-32,.cls-34,.cls-4,.cls-6,.cls-8{stroke-miterlimit:10;}.cls-12,.cls-13,.cls-16,.cls-17,.cls-20,.cls-21,.cls-24,.cls-25,.cls-28,.cls-29,.cls-32,.cls-33,.cls-4,.cls-5,.cls-8,.cls-9{stroke-width:27px;}.cls-13,.cls-17,.cls-21,.cls-25,.cls-29,.cls-33,.cls-35,.cls-36,.cls-5,.cls-9{stroke-linejoin:round;}.cls-10,.cls-14,.cls-18,.cls-22,.cls-26,.cls-30,.cls-34,.cls-6{stroke-width:33px;}.cls-7{fill:#95d7f5;}.cls-10,.cls-12,.cls-13,.cls-14,.cls-16,.cls-17,.cls-18,.cls-20,.cls-21,.cls-22,.cls-24,.cls-25,.cls-26,.cls-28,.cls-29,.cls-30,.cls-32,.cls-33,.cls-34,.cls-8,.cls-9{fill:none;}.cls-10,.cls-8,.cls-9{stroke:#95d7f5;}.cls-11{fill:#aa518b;}.cls-12,.cls-13,.cls-14{stroke:#aa518b;}.cls-15{fill:#b7a283;}.cls-16,.cls-17,.cls-18{stroke:#b7a283;}.cls-19,.cls-35,.cls-37{fill:#f12f39;}.cls-20,.cls-21,.cls-22{stroke:#f03139;}.cls-23{fill:#152449;}.cls-24,.cls-25,.cls-26{stroke:#152449;}.cls-27{fill:#fef20f;}.cls-28,.cls-29,.cls-30{stroke:#fff110;}.cls-31{fill:#5c731a;}.cls-32,.cls-33,.cls-34{stroke:#5c731b;}.cls-35,.cls-36{stroke:#fff;stroke-width:103px;}.cls-37{font-size:220px;font-family:Multicolore, Multicolore ;}.cls-38{font-size:55px;font-family:LeagueSpartan-Bold, League Spartan;font-weight:700;}.cls-39{letter-spacing:-0.02em;}.cls-40{letter-spacing:-0.03em;}.cls-41{letter-spacing:-0.06em;}.cls-42{letter-spacing:-0.05em;}</style></defs><g id="Camada_2" data-name="Camada 2"><g id="Camada_1-2" data-name="Camada 1"><circle class="cls-1" cx="479.47" cy="350" r="350"/><circle class="cls-2" cx="479.47" cy="350" r="142.88"/><g id="apoca"><circle class="cls-3" cx="479.81" cy="35.41" r="18.94"/><line class="cls-4" x1="533.34" y1="73.29" x2="426.28" y2="73.29"/><line class="cls-5" x1="439.87" y1="178.29" x2="479.4" y2="114.06"/><line class="cls-5" x1="519.75" y1="178.29" x2="480.22" y2="114.06"/><line class="cls-6" x1="479.81" y1="78.65" x2="479.81" y2="115.71"/></g><g id="apoca-2" data-name="apoca"><circle class="cls-7" cx="257.21" cy="127.36" r="18.94"/><line class="cls-8" x1="246.15" y1="192" x2="321.85" y2="116.29"/><line class="cls-9" x1="330" y1="256.63" x2="312.53" y2="183.26"/><line class="cls-9" x1="386.49" y1="200.15" x2="313.12" y2="182.68"/><line class="cls-10" x1="287.79" y1="157.93" x2="313.99" y2="184.13"/></g><g id="apoca-3" data-name="apoca"><circle class="cls-11" cx="164.88" cy="349.73" r="18.94"/><line class="cls-12" x1="202.76" y1="403.25" x2="202.76" y2="296.2"/><line class="cls-13" x1="307.76" y1="389.67" x2="243.53" y2="350.14"/><line class="cls-13" x1="307.76" y1="309.78" x2="243.53" y2="349.31"/><line class="cls-14" x1="208.11" y1="349.73" x2="245.17" y2="349.73"/></g><g id="apoca-4" data-name="apoca"><circle class="cls-15" cx="256.83" cy="572.25" r="18.94"/><line class="cls-16" x1="321.46" y1="583.32" x2="245.76" y2="507.62"/><line class="cls-17" x1="386.1" y1="499.46" x2="312.73" y2="516.93"/><line class="cls-17" x1="329.62" y1="442.98" x2="312.15" y2="516.35"/><line class="cls-18" x1="287.4" y1="541.68" x2="313.6" y2="515.48"/></g><g id="apoca-5" data-name="apoca"><circle class="cls-19" cx="479.19" cy="664.59" r="18.94"/><line class="cls-20" x1="532.72" y1="626.71" x2="425.66" y2="626.71"/><line class="cls-21" x1="519.13" y1="521.71" x2="479.6" y2="585.94"/><line class="cls-21" x1="439.25" y1="521.71" x2="478.78" y2="585.94"/><line class="cls-22" x1="479.19" y1="621.35" x2="479.19" y2="584.29"/></g><g id="apoca-6" data-name="apoca"><circle class="cls-23" cx="701.72" cy="572.64" r="18.94"/><line class="cls-24" x1="712.78" y1="508" x2="637.08" y2="583.71"/><line class="cls-25" x1="628.93" y1="443.37" x2="646.4" y2="516.74"/><line class="cls-25" x1="572.44" y1="499.85" x2="645.82" y2="517.32"/><line class="cls-26" x1="671.15" y1="542.07" x2="644.94" y2="515.87"/></g><g id="apoca-7" data-name="apoca"><circle class="cls-27" cx="794.06" cy="350.27" r="18.94"/><line class="cls-28" x1="756.17" y1="296.75" x2="756.17" y2="403.8"/><line class="cls-29" x1="651.17" y1="310.33" x2="715.41" y2="349.86"/><line class="cls-29" x1="651.17" y1="390.22" x2="715.41" y2="350.69"/><line class="cls-30" x1="750.82" y1="350.27" x2="713.76" y2="350.27"/></g><g id="apoca-8" data-name="apoca"><circle class="cls-31" cx="702.11" cy="127.75" r="18.94"/><line class="cls-32" x1="637.47" y1="116.68" x2="713.17" y2="192.38"/><line class="cls-33" x1="572.83" y1="200.54" x2="646.21" y2="183.07"/><line class="cls-33" x1="629.32" y1="257.02" x2="646.79" y2="183.65"/><line class="cls-34" x1="671.54" y1="158.32" x2="645.33" y2="184.52"/></g><path class="cls-2" d="M336.19,96.28a275,275,0,0,1,68.62-28L408,175.5Z"/><path class="cls-2" d="M198.75,271.9a275.59,275.59,0,0,1,28.7-68.33l78.06,73.6Z"/><path class="cls-2" d="M225.75,493.28a275.58,275.58,0,0,1-28-68.62L305,421.51Z"/><path class="cls-2" d="M401.37,630.72A275.43,275.43,0,0,1,333,602L406.64,524Z"/><path class="cls-2" d="M622.74,603.72a275,275,0,0,1-68.61,28L551,524.5Z"/><path class="cls-2" d="M760.19,428.1a275.62,275.62,0,0,1-28.71,68.33l-78.05-73.6Z"/><path class="cls-2" d="M733.19,206.72a275.56,275.56,0,0,1,28,68.62L654,278.49Z"/><path class="cls-2" d="M557.56,69.28A275.5,275.5,0,0,1,625.9,98L552.3,176Z"/><path class="cls-35" d="M85.79,967.34c-7-4-11.44-11.88-7-21.12L141.89,822.8c5.94-11.66,21.78-12.1,27.28,0l62,123.42c9,17.16-17.6,30.8-25.52,13.64L196,940.5H114.83l-9.46,19.36C101.85,967.34,93.71,968.88,85.79,967.34Zm94.6-55.88-24.86-54.34-27.06,54.34Z"/><path class="cls-35" d="M251.45,828.3c0-7.26,5.72-15.18,15-15.18h50.82c28.6,0,54.34,19.14,54.34,55.88,0,34.76-25.74,54.12-54.34,54.12H280.49v29c0,9.68-6.16,15.18-14.08,15.18a14.86,14.86,0,0,1-15-15.18Zm29,12.54v54.78h36.74c14.74,0,26.4-13,26.4-26.62,0-15.4-11.66-28.16-26.4-28.16Z"/><path class="cls-35" d="M472.33,969.54c-40.7,1.76-82.94-25.3-82.94-79.2,0-54.12,42.24-80.74,82.94-80.74,38.5,2,78.76,28.6,78.76,80.74S510.83,969.54,472.33,969.54ZM469.91,838.2c-24.64,0-51.48,17.38-51.48,52.14,0,34.54,26.84,52.14,51.48,52.14,25.3,0,52.36-17.6,52.36-52.14C522.27,855.58,495.21,838.2,469.91,838.2Z"/><path class="cls-35" d="M572.42,890.12c0-42.46,26.62-79,77.22-79,19.14,0,34.32,5.72,50.38,19.58a14.27,14.27,0,1,1-19.58,20.68c-9-9.46-18.26-12.1-30.8-12.1-33.88,0-50.16,24-50.16,50.82,0,27.28,16.06,52.36,50.16,52.36,12.54,0,24.2-5.06,34.32-14.08,6.82-5.28,16.28-2.64,20.24,2.64,3.52,4.84,5.28,13-2.42,20.68-15.4,14.3-33.88,17.16-52.14,17.16C596.4,968.88,572.42,932.58,572.42,890.12Z"/><path class="cls-35" d="M729.72,967.34c-7-4-11.44-11.88-7-21.12L785.82,822.8c5.94-11.66,21.78-12.1,27.28,0l62,123.42c9,17.16-17.6,30.8-25.52,13.64l-9.68-19.36H758.76l-9.46,19.36C745.78,967.34,737.64,968.88,729.72,967.34Zm94.6-55.88-24.86-54.34L772.4,911.46Z"/><path class="cls-36" d="M119.86,1058.2H108.75l-3.35-9.07H88.13l-3.36,9.07H73.66L92,1012.83h9.57Zm-23-31.35h-.11l-5.06,13.2h10.23Z"/><path class="cls-36" d="M151.32,1016.29l-4.18,8.25s-4.51-3.13-9.18-3.13c-3.52,0-5.39,1.59-5.39,4.07s4.29,4.34,9.46,6.54,10.61,6.44,10.61,12.38c0,10.83-8.25,14.62-17.1,14.62a26.51,26.51,0,0,1-17-6l5.17-8.69s6.05,5.12,11.11,5.12c2.25,0,6.54-.22,6.54-4.46,0-3.3-4.84-4.78-10.23-7.48s-8.63-6.93-8.63-11.66c0-8.47,7.48-13.85,14.79-13.85A25.84,25.84,0,0,1,151.32,1016.29Z"/><path class="cls-36" d="M187.18,1016.29l-4.18,8.25s-4.51-3.13-9.18-3.13c-3.52,0-5.39,1.59-5.39,4.07s4.29,4.34,9.46,6.54,10.61,6.44,10.61,12.38c0,10.83-8.25,14.62-17.1,14.62a26.51,26.51,0,0,1-17.05-6l5.17-8.69s6,5.12,11.11,5.12c2.25,0,6.54-.22,6.54-4.46,0-3.3-4.84-4.78-10.23-7.48s-8.63-6.93-8.63-11.66c0-8.47,7.48-13.85,14.79-13.85A25.84,25.84,0,0,1,187.18,1016.29Z"/><path class="cls-36" d="M214.19,1012c12.59,0,22.82,10.22,22.82,23.48S227.22,1059,214.19,1059c-13.42,0-22.88-10.28-22.88-23.53A23.09,23.09,0,0,1,214.19,1012Zm0,37c8.25,0,11.66-6.77,11.66-13.53S222.22,1022,214.19,1022s-11.72,6.76-11.72,13.53S205.72,1049,214.19,1049Z"/><path class="cls-36" d="M274.63,1046.05l4.4,8.79S274,1059,264.13,1059c-12.82,0-24.58-10.44-24.58-23.42S251.26,1012,264.13,1012c9.84,0,14.9,4.17,14.9,4.17l-4.4,8.8a15.77,15.77,0,0,0-8.91-2.8c-10.39,0-15,7.26-15,13.31s4.57,13.36,15,13.36A15.77,15.77,0,0,0,274.63,1046.05Z"/><path class="cls-36" d="M293.33,1058.2H283v-45.37h10.34Z"/><path class="cls-36" d="M341.29,1058.2H330.18l-3.35-9.07H309.56l-3.36,9.07H295.09l18.32-45.37H323Zm-23-31.35h-.11l-5.06,13.2h10.23Z"/><path class="cls-36" d="M374.35,1046.05l4.39,8.79s-5.05,4.18-14.9,4.18a21.53,21.53,0,0,1-3.3-.22l-.93,2.86c3,0,7.09,1.82,7.09,5.61,0,3.47-2.25,7.1-8.36,7.1-4.95,0-8.47-4.57-8.47-4.57l4-3s2,2.59,4.51,2.59c2,0,2.75-1.1,2.75-2.15,0-1.7-1.87-2.47-3.41-2.47a5.91,5.91,0,0,0-2.8.49l-.55-.44,2.25-6.93c-9.68-3-17.32-11.82-17.32-22.32,0-13,11.71-23.59,24.58-23.59,9.85,0,14.9,4.17,14.9,4.17l-4.39,8.8a15.77,15.77,0,0,0-8.91-2.8c-10.4,0-15,7.26-15,13.31s4.56,13.36,15,13.36A15.77,15.77,0,0,0,374.35,1046.05Z"/><path class="cls-36" d="M424.06,1058.2H413l-3.35-9.07H392.33L389,1058.2H377.87l18.31-45.37h9.57Zm-27.77-53.51c-1.76,0-2.47,2.53-2.47,2.53h-5.56s1.43-9.46,7.48-9.46a20.11,20.11,0,0,1,5.72,1.49,11.6,11.6,0,0,0,4.18,1c1.76,0,2.47-2.53,2.47-2.53h5.56s-1.43,9.46-7.48,9.46a20.32,20.32,0,0,1-5.72-1.48A11.52,11.52,0,0,0,396.29,1004.69Zm4.73,22.16h-.11l-5.06,13.2h10.23Z"/><path class="cls-36" d="M446.67,1012c12.59,0,22.82,10.22,22.82,23.48S459.7,1059,446.67,1059c-13.42,0-22.88-10.28-22.88-23.53A23.1,23.1,0,0,1,446.67,1012Zm0,37c8.25,0,11.66-6.77,11.66-13.53S454.7,1022,446.67,1022,435,1028.72,435,1035.49,438.2,1049,446.67,1049Z"/><path class="cls-36" d="M502.22,1012.83c12.43,0,22.88,9.46,22.88,22.66s-10.4,22.71-22.88,22.71H489.08v-45.37ZM501,1049c7.65,0,12.87-5.83,12.93-13.42s-5.23-13.47-12.93-13.47h-1.59V1049Z"/><path class="cls-36" d="M550.51,1012c12.59,0,22.82,10.22,22.82,23.48S563.54,1059,550.51,1059c-13.42,0-22.88-10.28-22.88-23.53A23.1,23.1,0,0,1,550.51,1012Zm0,37c8.25,0,11.66-6.77,11.66-13.53S558.54,1022,550.51,1022s-11.71,6.76-11.71,13.53S542,1049,550.51,1049Z"/><path class="cls-36" d="M608.7,1016.29l-4.18,8.25s-4.51-3.13-9.18-3.13c-3.52,0-5.39,1.59-5.39,4.07s4.29,4.34,9.46,6.54S610,1038.46,610,1044.4c0,10.83-8.25,14.62-17.1,14.62a26.51,26.51,0,0,1-17-6l5.17-8.69s6.05,5.12,11.11,5.12c2.25,0,6.54-.22,6.54-4.46,0-3.3-4.84-4.78-10.23-7.48s-8.63-6.93-8.63-11.66c0-8.47,7.48-13.85,14.79-13.85A25.84,25.84,0,0,1,608.7,1016.29Z"/><path class="cls-36" d="M646.43,1012.83c8.85,0,15.51,4.56,15.51,14s-6.66,14.57-15.51,14.57h-6.21v16.83H629.88v-45.37Zm-3.3,20.29c4.07,0,7.92-1.37,7.92-6s-3.85-6.05-7.92-6.05h-2.91v12Z"/><path class="cls-36" d="M704.34,1058.2H693.23l-3.35-9.07H672.61l-3.35,9.07H658.15l18.31-45.37H686Zm-23-31.35h-.11l-5.06,13.2h10.23Z"/><path class="cls-36" d="M737.4,1046.05l4.4,8.79s-5.06,4.18-14.9,4.18c-12.82,0-24.59-10.44-24.59-23.42S714,1012,726.9,1012c9.84,0,14.9,4.17,14.9,4.17l-4.4,8.8a15.77,15.77,0,0,0-8.91-2.8c-10.39,0-15,7.26-15,13.31s4.57,13.36,15,13.36A15.77,15.77,0,0,0,737.4,1046.05Z"/><path class="cls-36" d="M756.1,1058.2H745.76v-45.37H756.1Z"/><path class="cls-36" d="M788.66,1021.9H773v9h15V1040H773v9.13h15.62v9.07h-26v-45.37h26Z"/><path class="cls-36" d="M804.94,1058.2H794.6v-45.37h10.34L823,1041h.11v-28.16h10.34v45.37H823.09l-18-28.16h-.11Z"/><path class="cls-36" d="M834.53,1012.83h31.9v9.07H855.65v36.3H845.31v-36.3H834.53Z"/><path class="cls-36" d="M896.13,1021.9H880.51v9h15V1040h-15v9.13h15.62v9.07h-26v-45.37h26Z"/><path class="cls-36" d="M932.87,1016.29l-4.18,8.25s-4.51-3.13-9.19-3.13c-3.52,0-5.39,1.59-5.39,4.07s4.29,4.34,9.46,6.54,10.62,6.44,10.62,12.38c0,10.83-8.25,14.62-17.11,14.62a26.54,26.54,0,0,1-17.05-6l5.17-8.69s6,5.12,11.11,5.12c2.26,0,6.55-.22,6.55-4.46,0-3.3-4.84-4.78-10.23-7.48s-8.64-6.93-8.64-11.66c0-8.47,7.48-13.85,14.8-13.85A25.84,25.84,0,0,1,932.87,1016.29Z"/><path class="cls-36" d="M74.38,1078c12.59,0,22.82,10.22,22.82,23.48S87.41,1125,74.38,1125c-13.42,0-22.88-10.28-22.88-23.53A23.09,23.09,0,0,1,74.38,1078Zm0,37c8.25,0,11.66-6.77,11.66-13.53S82.41,1088,74.38,1088s-11.72,6.76-11.72,13.53S65.91,1115,74.38,1115Z"/><path class="cls-36" d="M112.11,1124.2H101.77v-45.37h10.34l18,28.16h.11v-28.16h10.33v45.37H130.26l-18-28.16h-.11Z"/><path class="cls-36" d="M178.49,1112.05l4.4,8.79S177.83,1125,168,1125c-12.82,0-24.59-10.44-24.59-23.42S155.12,1078,168,1078c9.84,0,14.9,4.17,14.9,4.17l-4.4,8.8a15.77,15.77,0,0,0-8.91-2.8c-10.39,0-15,7.26-15,13.31s4.57,13.36,15,13.36A15.77,15.77,0,0,0,178.49,1112.05Z"/><path class="cls-36" d="M207.7,1078c12.59,0,22.82,10.22,22.82,23.48S220.73,1125,207.7,1125c-13.42,0-22.88-10.28-22.88-23.53A23.09,23.09,0,0,1,207.7,1078Zm0,37c8.24,0,11.65-6.77,11.65-13.53S215.73,1088,207.7,1088,196,1094.72,196,1101.49,199.23,1115,207.7,1115Z"/><path class="cls-36" d="M245.43,1115.13h15.62v9.07h-26v-45.37h10.34Z"/><path class="cls-36" d="M287,1078c12.59,0,22.82,10.22,22.82,23.48S300,1125,287,1125c-13.42,0-22.88-10.28-22.88-23.53A23.09,23.09,0,0,1,287,1078Zm0,37c8.24,0,11.65-6.77,11.65-13.53S295,1088,287,1088s-11.72,6.76-11.72,13.53S278.54,1115,287,1115Zm5.72-54.17,5,6.32-13.09,7.59-3.08-4.23Z"/><path class="cls-36" d="M355.42,1108.64c-2.47,11.49-12,16.38-20.95,16.38-12.21,0-22.11-10.5-22.11-23.48s9.35-23.53,22.11-23.53c8,0,13.53,3,17.49,7.75l-6.77,7.42c-2.63-4.23-6.1-5.83-10.11-5.83-6.38,0-11.55,6.33-11.55,14.19,0,7.7,5.17,14,11.55,14,4.94,0,9.84-3.19,9.84-8.74H334.47v-8h20.95Z"/><path class="cls-36" d="M370.33,1124.2H360v-45.37h10.34Z"/><path class="cls-36" d="M408.22,1112.05l4.4,8.79s-5.06,4.18-14.9,4.18c-12.81,0-24.58-10.44-24.58-23.42S384.85,1078,397.72,1078c9.84,0,14.9,4.17,14.9,4.17l-4.4,8.8a15.77,15.77,0,0,0-8.91-2.8c-10.39,0-14.95,7.26-14.95,13.31s4.56,13.36,14.95,13.36A15.77,15.77,0,0,0,408.22,1112.05Z"/><path class="cls-36" d="M437.43,1078c12.59,0,22.82,10.22,22.82,23.48S450.46,1125,437.43,1125c-13.42,0-22.88-10.28-22.88-23.53A23.1,23.1,0,0,1,437.43,1078Zm0,37c8.25,0,11.66-6.77,11.66-13.53S445.46,1088,437.43,1088s-11.71,6.76-11.71,13.53S429,1115,437.43,1115Z"/><path class="cls-36" d="M495.62,1082.29l-4.18,8.25s-4.51-3.13-9.18-3.13c-3.52,0-5.39,1.59-5.39,4.07s4.29,4.34,9.45,6.54,10.62,6.44,10.62,12.38c0,10.83-8.25,14.62-17.1,14.62a26.51,26.51,0,0,1-17-6l5.17-8.69s6.05,5.12,11.11,5.12c2.25,0,6.54-.22,6.54-4.46,0-3.3-4.84-4.78-10.23-7.48s-8.63-6.93-8.63-11.66c0-8.47,7.48-13.85,14.79-13.85A25.84,25.84,0,0,1,495.62,1082.29Z"/><path class="cls-36" d="M529.94,1078.83c12.43,0,22.88,9.46,22.88,22.66s-10.4,22.71-22.88,22.71H516.8v-45.37ZM528.73,1115c7.64,0,12.87-5.83,12.92-13.42s-5.22-13.47-12.92-13.47h-1.59V1115Z"/><path class="cls-36" d="M583.34,1087.9H567.73v9h14.95V1106H567.73v9.13h15.61v9.07h-26v-45.37h26Z"/><path class="cls-36" d="M635.59,1112.05l4.4,8.79s-5.06,4.18-14.9,4.18c-12.82,0-24.58-10.44-24.58-23.42S612.22,1078,625.09,1078c9.84,0,14.9,4.17,14.9,4.17l-4.4,8.8a15.77,15.77,0,0,0-8.91-2.8c-10.39,0-14.95,7.26-14.95,13.31s4.56,13.36,14.95,13.36A15.77,15.77,0,0,0,635.59,1112.05Z"/><path class="cls-36" d="M685.31,1124.2H674.2l-3.35-9.07H653.58l-3.36,9.07h-11.1l18.31-45.37H667Zm-23-31.35h-.11l-5.06,13.2h10.23Z"/><path class="cls-36" d="M697.41,1124.2H687.08v-45.37h10.33l18,28.16h.11v-28.16H725.9v45.37H715.56l-18-28.16h-.11Z"/><path class="cls-36" d="M753.35,1078c12.59,0,22.82,10.22,22.82,23.48S766.38,1125,753.35,1125c-13.42,0-22.88-10.28-22.88-23.53A23.09,23.09,0,0,1,753.35,1078Zm0,37c8.25,0,11.66-6.77,11.66-13.53S761.38,1088,753.35,1088s-11.72,6.76-11.72,13.53S744.88,1115,753.35,1115Z"/><path class="cls-36" d="M791.08,1124.2H780.74v-45.37h10.34Z"/><path class="cls-36" d="M808,1124.2H797.68v-45.37H808l18,28.16h.11v-28.16H836.5v45.37H826.17l-18-28.16H808Z"/><path class="cls-36" d="M853.45,1124.2H843.11v-45.37h10.34v18.09h14.63v-18.09h10.33v45.37H868.08V1106H853.45Z"/><path class="cls-36" d="M926.37,1124.2h-11.1l-3.36-9.07H894.64l-3.35,9.07H880.18l18.31-45.37h9.57Zm-23-31.35h-.11l-5.06,13.2h10.23Z"/><path class="cls-36" d="M957.84,1082.29l-4.18,8.25s-4.51-3.13-9.19-3.13c-3.52,0-5.39,1.59-5.39,4.07s4.29,4.34,9.46,6.54,10.61,6.44,10.61,12.38c0,10.83-8.24,14.62-17.1,14.62a26.54,26.54,0,0,1-17-6l5.17-8.69s6.05,5.12,11.11,5.12c2.26,0,6.55-.22,6.55-4.46,0-3.3-4.84-4.78-10.23-7.48s-8.64-6.93-8.64-11.66c0-8.47,7.48-13.85,14.8-13.85A25.84,25.84,0,0,1,957.84,1082.29Z"/><path class="cls-36" d="M398.68,1153.9H383.06v9h15V1172h-15v9.13h15.62v9.07H372.73v-45.37h25.95Z"/><path class="cls-36" d="M435.86,1144.83c8.42,0,14.8,4.56,14.8,13.47,0,6.82-3.74,11.39-9.3,13.15L457,1190.2H443.84L430,1172.27v17.93H419.64v-45.37ZM431.19,1165c3.9,0,8.58-.28,8.58-5.94s-4.68-5.94-8.58-5.94H430V1165Z"/><path class="cls-36" d="M485,1153.9H469.36v9h14.95V1172H469.36v9.13H485v9.07H459v-45.37h26Z"/><path class="cls-36" d="M531.94,1174.64c-2.47,11.49-12,16.38-21,16.38-12.21,0-22.11-10.5-22.11-23.48S498.23,1144,511,1144c8,0,13.53,3,17.49,7.75l-6.77,7.42c-2.64-4.23-6.1-5.83-10.11-5.83-6.38,0-11.55,6.33-11.55,14.19,0,7.7,5.17,14,11.55,14,4.94,0,9.84-3.19,9.84-8.74H511v-8h21Z"/><path class="cls-36" d="M546.85,1190.2H536.51v-45.37h10.34Z"/><path class="cls-36" d="M594.81,1190.2H583.7l-3.36-9.07H563.08l-3.36,9.07H548.61l18.32-45.37h9.56ZM567,1136.69c-1.76,0-2.48,2.53-2.48,2.53H559s1.43-9.46,7.48-9.46a20.11,20.11,0,0,1,5.71,1.49,11.6,11.6,0,0,0,4.18,1c1.76,0,2.48-2.53,2.48-2.53h5.55s-1.43,9.46-7.48,9.46a20.22,20.22,0,0,1-5.71-1.48A11.52,11.52,0,0,0,567,1136.69Zm4.73,22.16h-.12l-5,13.2h10.22Z"/><path class="cls-36" d="M617.41,1144c12.6,0,22.83,10.22,22.83,23.48S630.45,1191,617.41,1191c-13.41,0-22.87-10.28-22.87-23.53A23.09,23.09,0,0,1,617.41,1144Zm0,37c8.25,0,11.66-6.77,11.66-13.53S625.44,1154,617.41,1154s-11.71,6.76-11.71,13.53S609,1181,617.41,1181Z"/><text class="cls-37" transform="translate(73.47 967.34)">APOCA</text><text class="cls-38" transform="translate(75.2 1058.2)"><tspan class="cls-39">AS</tspan><tspan x="77.88" y="0">SOCI</tspan><tspan class="cls-40" x="221.43" y="0">A</tspan><tspan x="262.79" y="0">ÇÃO DOS </tspan><tspan class="cls-41" x="551.37" y="0">P</tspan><tspan class="cls-40" x="584.48" y="0">A</tspan><tspan x="625.84" y="0">CIE</tspan><tspan class="cls-42" x="716.1" y="0">N</tspan><tspan x="758.89" y="0">TES </tspan><tspan x="-24.97" y="66">O</tspan><tspan class="cls-40" x="23.27" y="66">N</tspan><tspan x="66.94" y="66">COLÓG</tspan><tspan class="cls-40" x="281.49" y="66">I</tspan><tspan x="296.67" y="66">COS DE</tspan><tspan class="cls-40" x="510.78" y="66"> </tspan><tspan x="524.04" y="66">CANOINH</tspan><tspan class="cls-39" x="806.51" y="66">A</tspan><tspan x="848.54" y="66">S </tspan><tspan x="294.22" y="132">E REGIÃO</tspan></text></g></g></svg>