<svg xmlns="http://www.w3.org/2000/svg" viewBox="0 0 850 850"><defs><style>.cls-1{fill:#fff;}.cls-2{fill:#232323;}.cls-3,.cls-4,.cls-5,.cls-6{fill:#f98633;}.cls-4,.cls-5,.cls-6{stroke:#f98633;}.cls-10,.cls-12,.cls-13,.cls-14,.cls-16,.cls-17,.cls-18,.cls-20,.cls-21,.cls-22,.cls-24,.cls-25,.cls-26,.cls-28,.cls-29,.cls-30,.cls-32,.cls-33,.cls-34,.cls-4,.cls-5,.cls-6,.cls-8,.cls-9{stroke-linecap:round;}.cls-10,.cls-12,.cls-14,.cls-16,.cls-18,.cls-20,.cls-22,.cls-24,.cls-26,.cls-28,.cls-30,.cls-32,.cls-34,.cls-4,.cls-6,.cls-8{stroke-miterlimit:10;}.cls-12,.cls-13,.cls-16,.cls-17,.cls-20,.cls-21,.cls-24,.cls-25,.cls-28,.cls-29,.cls-32,.cls-33,.cls-4,.cls-5,.cls-8,.cls-9{stroke-width:27px;}.cls-13,.cls-17,.cls-21,.cls-25,.cls-29,.cls-33,.cls-5,.cls-9{stroke-linejoin:round;}.cls-10,.cls-14,.cls-18,.cls-22,.cls-26,.cls-30,.cls-34,.cls-6{stroke-width:33px;}.cls-7{fill:#95d7f5;}.cls-10,.cls-12,.cls-13,.cls-14,.cls-16,.cls-17,.cls-18,.cls-20,.cls-21,.cls-22,.cls-24,.cls-25,.cls-26,.cls-28,.cls-29,.cls-30,.cls-32,.cls-33,.cls-34,.cls-8,.cls-9{fill:none;}.cls-10,.cls-8,.cls-9{stroke:#95d7f5;}.cls-11{fill:#aa518b;}.cls-12,.cls-13,.cls-14{stroke:#aa518b;}.cls-15{fill:#b7a283;}.cls-16,.cls-17,.cls-18{stroke:#b7a283;}.cls-19{fill:#f12f39;}.cls-20,.cls-21,.cls-22{stroke:#f03139;}.cls-23{fill:#152449;}.cls-24,.cls-25,.cls-26{stroke:#152449;}.cls-27{fill:#fef20f;}.cls-28,.cls-29,.cls-30{stroke:#fff110;}.cls-31{fill:#5c731a;}.cls-32,.cls-33,.cls-34{stroke:#5c731b;}</style></defs><g id="Camada_2" data-name="Camada 2"><g id="Camada_1-2" data-name="Camada 1"><circle class="cls-1" cx="425" cy="425" r="425"/><circle class="cls-2" cx="425" cy="425" r="173.5"/><g id="apoca"><circle class="cls-3" cx="425.42" cy="43" r="23"/><line class="cls-4" x1="490.42" y1="89" x2="360.42" y2="89"/><line class="cls-5" x1="376.92" y1="216.5" x2="424.92" y2="138.5"/><line class="cls-5" x1="473.92" y1="216.5" x2="425.92" y2="138.5"/><line class="cls-6" x1="425.42" y1="95.5" x2="425.42" y2="140.5"/></g><g id="apoca-2" data-name="apoca"><circle class="cls-7" cx="155.12" cy="154.65" r="23"/><line class="cls-8" x1="141.69" y1="233.14" x2="233.61" y2="141.21"/><line class="cls-9" x1="243.51" y1="311.63" x2="222.3" y2="222.53"/><line class="cls-9" x1="312.1" y1="243.04" x2="223" y2="221.82"/><line class="cls-10" x1="192.24" y1="191.77" x2="224.06" y2="223.59"/></g><g id="apoca-3" data-name="apoca"><circle class="cls-11" cx="43" cy="424.67" r="23"/><line class="cls-12" x1="89" y1="489.67" x2="89" y2="359.67"/><line class="cls-13" x1="216.5" y1="473.17" x2="138.5" y2="425.17"/><line class="cls-13" x1="216.5" y1="376.17" x2="138.5" y2="424.17"/><line class="cls-14" x1="95.5" y1="424.67" x2="140.5" y2="424.67"/></g><g id="apoca-4" data-name="apoca"><circle class="cls-15" cx="154.65" cy="694.88" r="23"/><line class="cls-16" x1="233.14" y1="708.31" x2="141.21" y2="616.39"/><line class="cls-17" x1="311.63" y1="606.49" x2="222.53" y2="627.7"/><line class="cls-17" x1="243.04" y1="537.9" x2="221.82" y2="627"/><line class="cls-18" x1="191.77" y1="657.76" x2="223.59" y2="625.94"/></g><g id="apoca-5" data-name="apoca"><circle class="cls-19" cx="424.67" cy="807" r="23"/><line class="cls-20" x1="489.67" y1="761" x2="359.67" y2="761"/><line class="cls-21" x1="473.17" y1="633.5" x2="425.17" y2="711.5"/><line class="cls-21" x1="376.17" y1="633.5" x2="424.17" y2="711.5"/><line class="cls-22" x1="424.67" y1="754.5" x2="424.67" y2="709.5"/></g><g id="apoca-6" data-name="apoca"><circle class="cls-23" cx="694.88" cy="695.35" r="23"/><line class="cls-24" x1="708.31" y1="616.86" x2="616.39" y2="708.79"/><line class="cls-25" x1="606.49" y1="538.37" x2="627.7" y2="627.47"/><line class="cls-25" x1="537.9" y1="606.96" x2="627" y2="628.18"/><line class="cls-26" x1="657.76" y1="658.23" x2="625.94" y2="626.41"/></g><g id="apoca-7" data-name="apoca"><circle class="cls-27" cx="807" cy="425.33" r="23"/><line class="cls-28" x1="761" y1="360.33" x2="761" y2="490.33"/><line class="cls-29" x1="633.5" y1="376.83" x2="711.5" y2="424.83"/><line class="cls-29" x1="633.5" y1="473.83" x2="711.5" y2="425.83"/><line class="cls-30" x1="754.5" y1="425.33" x2="709.5" y2="425.33"/></g><g id="apoca-8" data-name="apoca"><circle class="cls-31" cx="695.35" cy="155.12" r="23"/><line class="cls-32" x1="616.86" y1="141.69" x2="708.79" y2="233.61"/><line class="cls-33" x1="538.37" y1="243.51" x2="627.47" y2="222.3"/><line class="cls-33" x1="606.96" y1="312.1" x2="628.18" y2="223"/><line class="cls-34" x1="658.23" y1="192.24" x2="626.41" y2="224.06"/></g><path class="cls-2" d="M251,116.91a335,335,0,0,1,83.32-34l3.83,130.22Z"/><path class="cls-2" d="M84.13,330.17a334.2,334.2,0,0,1,34.85-83l94.78,89.38Z"/><path class="cls-2" d="M116.91,599a335,335,0,0,1-34-83.32l130.22-3.83Z"/><path class="cls-2" d="M330.17,765.87a334.2,334.2,0,0,1-83-34.85l89.38-94.78Z"/><path class="cls-2" d="M599,733.09a335,335,0,0,1-83.32,34L511.83,636.9Z"/><path class="cls-2" d="M765.87,519.83a334.2,334.2,0,0,1-34.85,83l-94.78-89.38Z"/><path class="cls-2" d="M733.09,251a335,335,0,0,1,34,83.32L636.9,338.17Z"/><path class="cls-2" d="M519.83,84.13a334.2,334.2,0,0,1,83,34.85l-89.38,94.78Z"/></g></g></svg>