<svg xmlns="http://www.w3.org/2000/svg" viewBox="0 0 1727.69 700"><defs><style>.cls-1{fill:#fff;}.cls-2,.cls-36,.cls-38{fill:#232323;}.cls-3,.cls-4,.cls-5,.cls-6{fill:#f98633;}.cls-4,.cls-5,.cls-6{stroke:#f98633;}.cls-10,.cls-12,.cls-13,.cls-14,.cls-16,.cls-17,.cls-18,.cls-20,.cls-21,.cls-22,.cls-24,.cls-25,.cls-26,.cls-28,.cls-29,.cls-30,.cls-32,.cls-33,.cls-34,.cls-35,.cls-36,.cls-4,.cls-5,.cls-6,.cls-8,.cls-9{stroke-linecap:round;}.cls-10,.cls-12,.cls-14,.cls-16,.cls-18,.cls-20,.cls-22,.cls-24,.cls-26,.cls-28,.cls-30,.cls-32,.cls-34,.cls-4,.cls-6,.cls-8{stroke-miterlimit:10;}.cls-12,.cls-13,.cls-16,.cls-17,.cls-20,.cls-21,.cls-24,.cls-25,.cls-28,.cls-29,.cls-32,.cls-33,.cls-4,.cls-5,.cls-8,.cls-9{stroke-width:27px;}.cls-13,.cls-17,.cls-21,.cls-25,.cls-29,.cls-33,.cls-35,.cls-36,.cls-5,.cls-9{stroke-linejoin:round;}.cls-10,.cls-14,.cls-18,.cls-22,.cls-26,.cls-30,.cls-34,.cls-6{stroke-width:33px;}.cls-7{fill:#95d7f5;}.cls-10,.cls-12,.cls-13,.cls-14,.cls-16,.cls-17,.cls-18,.cls-20,.cls-21,.cls-22,.cls-24,.cls-25,.cls-26,.cls-28,.cls-29,.cls-30,.cls-32,.cls-33,.cls-34,.cls-8,.cls-9{fill:none;}.cls-10,.cls-8,.cls-9{stroke:#95d7f5;}.cls-11{fill:#aa518b;}.cls-12,.cls-13,.cls-14{stroke:#aa518b;}.cls-15{fill:#b7a283;}.cls-16,.cls-17,.cls-18{stroke:#b7a283;}.cls-19,.cls-35,.cls-37{fill:#f12f39;}.cls-20,.cls-21,.cls-22{stroke:#f03139;}.cls-23{fill:#152449;}.cls-24,.cls-25,.cls-26{stroke:#152449;}.cls-27{fill:#fef20f;}.cls-28,.cls-29,.cls-30{stroke:#fff110;}.cls-31{fill:#5c731a;}.cls-32,.cls-33,.cls-34{stroke:#5c731b;}.cls-35,.cls-36{stroke:#fff;stroke-width:103px;}.cls-37{font-size:220px;font-family:Multicolore, Multicolore ;}.cls-38{font-size:55px;font-family:LeagueSpartan-Bold, League Spartan;font-weight:700;}.cls-39{letter-spacing:-0.02em;}.cls-40{letter-spacing:-0.03em;}.cls-41{letter-spacing:-0.06em;}.cls-42{letter-spacing:-0.05em;}</style></defs><g id="Camada_2" data-name="Camada 2"><g id="Camada_1-2" data-name="Camada 1"><circle class="cls-1" cx="350" cy="350" r="350"/><circle class="cls-2" cx="350" cy="350" r="142.88"/><g id="apoca"><circle class="cls-3" cx="350.34" cy="35.41" r="18.94"/><line class="cls-4" x1="403.87" y1="73.29" x2="296.81" y2="73.29"/><line class="cls-5" x1="310.4" y1="178.29" x2="349.93" y2="114.06"/><line class="cls-5" x1="390.28" y1="178.29" x2="350.75" y2="114.06"/><line class="cls-6" x1="350.34" y1="78.65" x2="350.34" y2="115.71"/></g><g id="apoca-2" data-name="apoca"><circle class="cls-7" cx="127.75" cy="127.36" r="18.94"/><line class="cls-8" x1="116.68" y1="192" x2="192.38" y2="116.29"/><line class="cls-9" x1="200.54" y1="256.63" x2="183.07" y2="183.26"/><line class="cls-9" x1="257.02" y1="200.15" x2="183.65" y2="182.68"/><line class="cls-10" x1="158.32" y1="157.93" x2="184.52" y2="184.13"/></g><g id="apoca-3" data-name="apoca"><circle class="cls-11" cx="35.41" cy="349.73" r="18.94"/><line class="cls-12" x1="73.29" y1="403.25" x2="73.29" y2="296.2"/><line class="cls-13" x1="178.29" y1="389.67" x2="114.06" y2="350.14"/><line class="cls-13" x1="178.29" y1="309.78" x2="114.06" y2="349.31"/><line class="cls-14" x1="78.65" y1="349.73" x2="115.71" y2="349.73"/></g><g id="apoca-4" data-name="apoca"><circle class="cls-15" cx="127.36" cy="572.25" r="18.94"/><line class="cls-16" x1="192" y1="583.32" x2="116.29" y2="507.62"/><line class="cls-17" x1="256.63" y1="499.46" x2="183.26" y2="516.93"/><line class="cls-17" x1="200.15" y1="442.98" x2="182.68" y2="516.35"/><line class="cls-18" x1="157.93" y1="541.68" x2="184.13" y2="515.48"/></g><g id="apoca-5" data-name="apoca"><circle class="cls-19" cx="349.73" cy="664.59" r="18.94"/><line class="cls-20" x1="403.25" y1="626.71" x2="296.2" y2="626.71"/><line class="cls-21" x1="389.67" y1="521.71" x2="350.14" y2="585.94"/><line class="cls-21" x1="309.78" y1="521.71" x2="349.31" y2="585.94"/><line class="cls-22" x1="349.73" y1="621.35" x2="349.73" y2="584.29"/></g><g id="apoca-6" data-name="apoca"><circle class="cls-23" cx="572.25" cy="572.64" r="18.94"/><line class="cls-24" x1="583.32" y1="508" x2="507.62" y2="583.71"/><line class="cls-25" x1="499.46" y1="443.37" x2="516.93" y2="516.74"/><line class="cls-25" x1="442.98" y1="499.85" x2="516.35" y2="517.32"/><line class="cls-26" x1="541.68" y1="542.07" x2="515.48" y2="515.87"/></g><g id="apoca-7" data-name="apoca"><circle class="cls-27" cx="664.59" cy="350.27" r="18.94"/><line class="cls-28" x1="626.71" y1="296.75" x2="626.71" y2="403.8"/><line class="cls-29" x1="521.71" y1="310.33" x2="585.94" y2="349.86"/><line class="cls-29" x1="521.71" y1="390.22" x2="585.94" y2="350.69"/><line class="cls-30" x1="621.35" y1="350.27" x2="584.29" y2="350.27"/></g><g id="apoca-8" data-name="apoca"><circle class="cls-31" cx="572.64" cy="127.75" r="18.94"/><line class="cls-32" x1="508" y1="116.68" x2="583.71" y2="192.38"/><line class="cls-33" x1="443.37" y1="200.54" x2="516.74" y2="183.07"/><line class="cls-33" x1="499.85" y1="257.02" x2="517.32" y2="183.65"/><line class="cls-34" x1="542.07" y1="158.32" x2="515.87" y2="184.52"/></g><path class="cls-2" d="M206.72,96.28a275.18,275.18,0,0,1,68.62-28l3.15,107.24Z"/><path class="cls-2" d="M69.28,271.9A275.59,275.59,0,0,1,98,203.57L176,277.17Z"/><path class="cls-2" d="M96.28,493.28a275.18,275.18,0,0,1-28-68.62l107.24-3.15Z"/><path class="cls-2" d="M271.9,630.72A275.59,275.59,0,0,1,203.57,602L277.17,524Z"/><path class="cls-2" d="M493.28,603.72a275.18,275.18,0,0,1-68.62,28L421.51,524.5Z"/><path class="cls-2" d="M630.72,428.1A275.59,275.59,0,0,1,602,496.43L524,422.83Z"/><path class="cls-2" d="M603.72,206.72a275.18,275.18,0,0,1,28,68.62L524.5,278.49Z"/><path class="cls-2" d="M428.1,69.28A275.59,275.59,0,0,1,496.43,98L422.83,176Z"/><path class="cls-35" d="M802.82,302.34c-7-4-11.44-11.88-7-21.12L858.92,157.8c5.94-11.66,21.78-12.1,27.28,0l62,123.42c9,17.16-17.6,30.8-25.52,13.64L913,275.5H831.86l-9.46,19.36C818.88,302.34,810.74,303.88,802.82,302.34Zm94.6-55.88-24.86-54.34L845.5,246.46Z"/><path class="cls-35" d="M968.48,163.3c0-7.26,5.72-15.18,15-15.18h50.82c28.6,0,54.34,19.14,54.34,55.88,0,34.76-25.74,54.12-54.34,54.12H997.52v29c0,9.68-6.16,15.18-14.08,15.18a14.86,14.86,0,0,1-15-15.18Zm29,12.54v54.78h36.74c14.74,0,26.4-13,26.4-26.62,0-15.4-11.66-28.16-26.4-28.16Z"/><path class="cls-35" d="M1189.36,304.54c-40.7,1.76-82.94-25.3-82.94-79.2,0-54.12,42.24-80.74,82.94-80.74,38.5,2,78.76,28.6,78.76,80.74S1227.86,304.54,1189.36,304.54Zm-2.42-131.34c-24.64,0-51.48,17.38-51.48,52.14,0,34.54,26.84,52.14,51.48,52.14,25.3,0,52.36-17.6,52.36-52.14C1239.3,190.58,1212.24,173.2,1186.94,173.2Z"/><path class="cls-35" d="M1289.46,225.12c0-42.46,26.62-79,77.22-79,19.14,0,34.32,5.72,50.38,19.58a14.27,14.27,0,1,1-19.58,20.68c-9-9.46-18.26-12.1-30.8-12.1-33.88,0-50.16,24-50.16,50.82,0,27.28,16.06,52.36,50.16,52.36,12.54,0,24.2-5.06,34.32-14.08,6.82-5.28,16.28-2.64,20.24,2.64,3.52,4.84,5.28,13-2.42,20.68-15.4,14.3-33.88,17.16-52.14,17.16C1313.44,303.88,1289.46,267.58,1289.46,225.12Z"/><path class="cls-35" d="M1446.75,302.34c-7-4-11.44-11.88-7-21.12l63.14-123.42c5.94-11.66,21.78-12.1,27.28,0l62,123.42c9,17.16-17.6,30.8-25.52,13.64L1557,275.5h-81.19l-9.46,19.36C1462.81,302.34,1454.67,303.88,1446.75,302.34Zm94.61-55.88-24.86-54.34-27.07,54.34Z"/><path class="cls-36" d="M836.89,393.2H825.78l-3.35-9.07H805.16l-3.35,9.07H790.7L809,347.83h9.57Zm-23-31.35h-.11l-5.06,13.2h10.23Z"/><path class="cls-36" d="M868.35,351.29l-4.18,8.25s-4.51-3.13-9.18-3.13c-3.52,0-5.39,1.59-5.39,4.07s4.29,4.34,9.46,6.54,10.61,6.44,10.61,12.38c0,10.83-8.25,14.62-17.1,14.62a26.54,26.54,0,0,1-17.05-6l5.17-8.69s6,5.12,11.11,5.12c2.25,0,6.54-.22,6.54-4.46,0-3.3-4.84-4.78-10.22-7.48s-8.64-6.93-8.64-11.66c0-8.47,7.48-13.85,14.8-13.85A25.82,25.82,0,0,1,868.35,351.29Z"/><path class="cls-36" d="M904.21,351.29,900,359.54s-4.51-3.13-9.18-3.13c-3.52,0-5.39,1.59-5.39,4.07s4.29,4.34,9.46,6.54,10.61,6.44,10.61,12.38c0,10.83-8.25,14.62-17.1,14.62a26.54,26.54,0,0,1-17-6l5.17-8.69s6.05,5.12,11.11,5.12c2.26,0,6.55-.22,6.55-4.46,0-3.3-4.84-4.78-10.23-7.48s-8.64-6.93-8.64-11.66c0-8.47,7.48-13.85,14.8-13.85A25.82,25.82,0,0,1,904.21,351.29Z"/><path class="cls-36" d="M931.22,347c12.59,0,22.82,10.22,22.82,23.48S944.25,394,931.22,394c-13.42,0-22.88-10.28-22.88-23.53A23.1,23.1,0,0,1,931.22,347Zm0,37c8.25,0,11.66-6.77,11.66-13.53S939.25,357,931.22,357s-11.71,6.76-11.71,13.53S922.75,384,931.22,384Z"/><path class="cls-36" d="M991.66,381.05l4.4,8.79S991,394,981.16,394c-12.81,0-24.58-10.44-24.58-23.42S968.29,347,981.16,347c9.84,0,14.9,4.17,14.9,4.17l-4.4,8.8a15.77,15.77,0,0,0-8.91-2.8c-10.39,0-15,7.26-15,13.31s4.56,13.36,15,13.36A15.77,15.77,0,0,0,991.66,381.05Z"/><path class="cls-36" d="M1010.37,393.2H1000V347.83h10.34Z"/><path class="cls-36" d="M1058.32,393.2h-11.11l-3.35-9.07h-17.27l-3.35,9.07h-11.11l18.31-45.37H1040Zm-23-31.35h-.11l-5.06,13.2h10.23Z"/><path class="cls-36" d="M1091.38,381.05l4.4,8.79s-5.06,4.18-14.91,4.18a21.53,21.53,0,0,1-3.3-.22l-.93,2.86c3,0,7.09,1.82,7.09,5.61,0,3.47-2.25,7.1-8.35,7.1-5,0-8.47-4.57-8.47-4.57l4-3s2,2.59,4.51,2.59c2,0,2.74-1.1,2.74-2.15,0-1.7-1.87-2.47-3.41-2.47a6,6,0,0,0-2.8.49l-.55-.44,2.26-6.93c-9.68-3-17.33-11.82-17.33-22.32,0-13,11.72-23.59,24.58-23.59,9.85,0,14.91,4.17,14.91,4.17l-4.4,8.8a15.77,15.77,0,0,0-8.91-2.8c-10.39,0-15,7.26-15,13.31s4.57,13.36,15,13.36A15.77,15.77,0,0,0,1091.38,381.05Z"/><path class="cls-36" d="M1141.1,393.2H1130l-3.36-9.07h-17.27L1106,393.2H1094.9l18.31-45.37h9.57Zm-27.78-53.51c-1.76,0-2.47,2.53-2.47,2.53h-5.56s1.43-9.46,7.48-9.46a20.11,20.11,0,0,1,5.72,1.49,11.6,11.6,0,0,0,4.18,1c1.76,0,2.48-2.53,2.48-2.53h5.55s-1.43,9.46-7.48,9.46a20.32,20.32,0,0,1-5.72-1.48A11.52,11.52,0,0,0,1113.32,339.69Zm4.73,22.16h-.11l-5.06,13.2h10.23Z"/><path class="cls-36" d="M1163.7,347c12.6,0,22.83,10.22,22.83,23.48S1176.74,394,1163.7,394c-13.41,0-22.87-10.28-22.87-23.53A23.09,23.09,0,0,1,1163.7,347Zm0,37c8.25,0,11.66-6.77,11.66-13.53S1171.73,357,1163.7,357,1152,363.72,1152,370.49,1155.23,384,1163.7,384Z"/><path class="cls-36" d="M1219.25,347.83c12.43,0,22.88,9.46,22.88,22.66s-10.39,22.71-22.88,22.71h-13.14V347.83ZM1218,384c7.65,0,12.87-5.83,12.93-13.42s-5.23-13.47-12.93-13.47h-1.59V384Z"/><path class="cls-36" d="M1267.54,347c12.6,0,22.83,10.22,22.83,23.48S1280.58,394,1267.54,394c-13.41,0-22.87-10.28-22.87-23.53A23.09,23.09,0,0,1,1267.54,347Zm0,37c8.25,0,11.66-6.77,11.66-13.53S1275.57,357,1267.54,357s-11.71,6.76-11.71,13.53S1259.07,384,1267.54,384Z"/><path class="cls-36" d="M1325.73,351.29l-4.18,8.25s-4.51-3.13-9.18-3.13c-3.52,0-5.39,1.59-5.39,4.07s4.29,4.34,9.46,6.54,10.61,6.44,10.61,12.38c0,10.83-8.25,14.62-17.1,14.62a26.54,26.54,0,0,1-17-6l5.17-8.69s6,5.12,11.11,5.12c2.25,0,6.54-.22,6.54-4.46,0-3.3-4.84-4.78-10.22-7.48s-8.64-6.93-8.64-11.66c0-8.47,7.48-13.85,14.79-13.85A25.84,25.84,0,0,1,1325.73,351.29Z"/><path class="cls-36" d="M1363.46,347.83c8.86,0,15.51,4.56,15.51,14s-6.65,14.57-15.51,14.57h-6.21V393.2h-10.34V347.83Zm-3.3,20.29c4.07,0,7.92-1.37,7.92-6s-3.85-6.05-7.92-6.05h-2.91v12Z"/><path class="cls-36" d="M1421.38,393.2h-11.11l-3.36-9.07h-17.27l-3.35,9.07h-11.11l18.31-45.37h9.57Zm-23.05-31.35h-.11l-5.06,13.2h10.23Z"/><path class="cls-36" d="M1454.43,381.05l4.4,8.79s-5.06,4.18-14.9,4.18c-12.82,0-24.58-10.44-24.58-23.42S1431.06,347,1443.93,347c9.84,0,14.9,4.17,14.9,4.17l-4.4,8.8a15.77,15.77,0,0,0-8.91-2.8c-10.39,0-15,7.26-15,13.31s4.57,13.36,15,13.36A15.77,15.77,0,0,0,1454.43,381.05Z"/><path class="cls-36" d="M1473.13,393.2h-10.34V347.83h10.34Z"/><path class="cls-36" d="M1505.69,356.9h-15.62v9h15V375h-15v9.13h15.62v9.07h-26V347.83h26Z"/><path class="cls-36" d="M1522,393.2h-10.34V347.83H1522L1540,376h.11V347.83h10.34V393.2h-10.34l-18-28.16H1522Z"/><path class="cls-36" d="M1551.56,347.83h31.9v9.07h-10.78v36.3h-10.34V356.9h-10.78Z"/><path class="cls-36" d="M1613.16,356.9h-15.62v9h15V375h-15v9.13h15.62v9.07h-26V347.83h26Z"/><path class="cls-36" d="M1649.9,351.29l-4.18,8.25s-4.51-3.13-9.18-3.13c-3.52,0-5.39,1.59-5.39,4.07s4.29,4.34,9.45,6.54,10.62,6.44,10.62,12.38c0,10.83-8.25,14.62-17.1,14.62a26.51,26.51,0,0,1-17-6l5.17-8.69s6,5.12,11.11,5.12c2.25,0,6.54-.22,6.54-4.46,0-3.3-4.84-4.78-10.23-7.48s-8.63-6.93-8.63-11.66c0-8.47,7.48-13.85,14.79-13.85A25.84,25.84,0,0,1,1649.9,351.29Z"/><path class="cls-36" d="M791.41,413c12.59,0,22.82,10.22,22.82,23.48S804.44,460,791.41,460c-13.42,0-22.88-10.28-22.88-23.53A23.1,23.1,0,0,1,791.41,413Zm0,37c8.25,0,11.66-6.77,11.66-13.53S799.44,423,791.41,423s-11.71,6.76-11.71,13.53S782.94,450,791.41,450Z"/><path class="cls-36" d="M829.14,459.2H818.8V413.83h10.34l18,28.16h.11V413.83h10.34V459.2H847.29l-18-28.16h-.11Z"/><path class="cls-36" d="M895.52,447.05l4.4,8.79S894.86,460,885,460c-12.81,0-24.58-10.44-24.58-23.42S872.15,413,885,413c9.84,0,14.9,4.17,14.9,4.17l-4.4,8.8a15.77,15.77,0,0,0-8.91-2.8c-10.39,0-15,7.26-15,13.31s4.56,13.36,15,13.36A15.77,15.77,0,0,0,895.52,447.05Z"/><path class="cls-36" d="M924.73,413c12.59,0,22.82,10.22,22.82,23.48S937.76,460,924.73,460c-13.42,0-22.88-10.28-22.88-23.53A23.1,23.1,0,0,1,924.73,413Zm0,37c8.25,0,11.66-6.77,11.66-13.53S932.76,423,924.73,423,913,429.72,913,436.49,916.26,450,924.73,450Z"/><path class="cls-36" d="M962.46,450.13h15.62v9.07h-26V413.83h10.34Z"/><path class="cls-36" d="M1004,413c12.59,0,22.82,10.22,22.82,23.48S1017.07,460,1004,460c-13.42,0-22.88-10.28-22.88-23.53A23.09,23.09,0,0,1,1004,413Zm0,37c8.25,0,11.66-6.77,11.66-13.53S1012.07,423,1004,423s-11.71,6.76-11.71,13.53S995.57,450,1004,450Zm5.72-54.17,5,6.32-13.09,7.59-3.08-4.23Z"/><path class="cls-36" d="M1072.46,443.64c-2.48,11.49-12,16.38-21,16.38-12.21,0-22.1-10.5-22.1-23.48s9.35-23.53,22.1-23.53c8,0,13.53,3,17.49,7.75l-6.76,7.42c-2.64-4.23-6.11-5.83-10.12-5.83-6.38,0-11.55,6.33-11.55,14.19,0,7.7,5.17,14,11.55,14,5,0,9.84-3.19,9.84-8.74H1051.5v-8h21Z"/><path class="cls-36" d="M1087.37,459.2H1077V413.83h10.34Z"/><path class="cls-36" d="M1125.26,447.05l4.4,8.79s-5.06,4.18-14.91,4.18c-12.81,0-24.58-10.44-24.58-23.42S1101.88,413,1114.75,413c9.85,0,14.91,4.17,14.91,4.17l-4.4,8.8a15.77,15.77,0,0,0-8.91-2.8c-10.4,0-15,7.26-15,13.31s4.56,13.36,15,13.36A15.77,15.77,0,0,0,1125.26,447.05Z"/><path class="cls-36" d="M1154.46,413c12.6,0,22.82,10.22,22.82,23.48S1167.5,460,1154.46,460c-13.42,0-22.88-10.28-22.88-23.53A23.1,23.1,0,0,1,1154.46,413Zm0,37c8.25,0,11.66-6.77,11.66-13.53S1162.49,423,1154.46,423s-11.71,6.76-11.71,13.53S1146,450,1154.46,450Z"/><path class="cls-36" d="M1212.65,417.29l-4.18,8.25s-4.51-3.13-9.18-3.13c-3.52,0-5.39,1.59-5.39,4.07s4.29,4.34,9.46,6.54S1214,439.46,1214,445.4c0,10.83-8.25,14.62-17.1,14.62a26.51,26.51,0,0,1-17-6l5.17-8.69s6,5.12,11.11,5.12c2.25,0,6.54-.22,6.54-4.46,0-3.3-4.84-4.78-10.23-7.48s-8.63-6.93-8.63-11.66c0-8.47,7.48-13.85,14.79-13.85A25.84,25.84,0,0,1,1212.65,417.29Z"/><path class="cls-36" d="M1247,413.83c12.43,0,22.88,9.46,22.88,22.66S1259.46,459.2,1247,459.2h-13.14V413.83ZM1245.76,450c7.65,0,12.87-5.83,12.93-13.42s-5.23-13.47-12.93-13.47h-1.59V450Z"/><path class="cls-36" d="M1300.38,422.9h-15.62v9h15V441h-15v9.13h15.62v9.07h-26V413.83h26Z"/><path class="cls-36" d="M1352.63,447.05l4.39,8.79S1352,460,1342.12,460c-12.81,0-24.58-10.44-24.58-23.42S1329.25,413,1342.12,413c9.84,0,14.9,4.17,14.9,4.17l-4.39,8.8a15.77,15.77,0,0,0-8.91-2.8c-10.4,0-15,7.26-15,13.31s4.56,13.36,15,13.36A15.77,15.77,0,0,0,1352.63,447.05Z"/><path class="cls-36" d="M1402.34,459.2h-11.11l-3.35-9.07h-17.27l-3.35,9.07h-11.11l18.31-45.37H1384Zm-23-31.35h-.11l-5.06,13.2h10.23Z"/><path class="cls-36" d="M1414.45,459.2h-10.34V413.83h10.34l18,28.16h.11V413.83h10.34V459.2h-10.34l-18-28.16h-.11Z"/><path class="cls-36" d="M1470.38,413c12.59,0,22.82,10.22,22.82,23.48S1483.41,460,1470.38,460c-13.42,0-22.88-10.28-22.88-23.53A23.1,23.1,0,0,1,1470.38,413Zm0,37c8.25,0,11.66-6.77,11.66-13.53S1478.41,423,1470.38,423s-11.71,6.76-11.71,13.53S1461.91,450,1470.38,450Z"/><path class="cls-36" d="M1508.11,459.2h-10.34V413.83h10.34Z"/><path class="cls-36" d="M1525.05,459.2h-10.34V413.83h10.34l18,28.16h.11V413.83h10.34V459.2H1543.2l-18-28.16h-.11Z"/><path class="cls-36" d="M1570.48,459.2h-10.34V413.83h10.34v18.09h14.63V413.83h10.34V459.2h-10.34V441h-14.63Z"/><path class="cls-36" d="M1643.41,459.2H1632.3l-3.36-9.07h-17.27l-3.35,9.07h-11.11l18.31-45.37h9.57Zm-23.05-31.35h-.11l-5.06,13.2h10.23Z"/><path class="cls-36" d="M1674.87,417.29l-4.18,8.25s-4.51-3.13-9.19-3.13c-3.51,0-5.38,1.59-5.38,4.07s4.29,4.34,9.45,6.54,10.62,6.44,10.62,12.38c0,10.83-8.25,14.62-17.11,14.62a26.49,26.49,0,0,1-17-6l5.17-8.69s6,5.12,11.11,5.12c2.25,0,6.54-.22,6.54-4.46,0-3.3-4.84-4.78-10.23-7.48s-8.63-6.93-8.63-11.66c0-8.47,7.48-13.85,14.79-13.85A25.84,25.84,0,0,1,1674.87,417.29Z"/><path class="cls-36" d="M1115.71,488.9H1100.1v9h15V507h-15v9.13h15.61v9.07h-26V479.83h26Z"/><path class="cls-36" d="M1152.9,479.83c8.41,0,14.79,4.56,14.79,13.47,0,6.82-3.74,11.39-9.3,13.15L1174,525.2h-13.14L1147,507.27V525.2h-10.34V479.83ZM1148.22,500c3.91,0,8.58-.28,8.58-5.94s-4.67-5.94-8.58-5.94H1147V500Z"/><path class="cls-36" d="M1202,488.9h-15.62v9h15V507h-15v9.13H1202v9.07h-26V479.83h26Z"/><path class="cls-36" d="M1249,509.64c-2.48,11.49-12,16.38-21,16.38-12.21,0-22.1-10.5-22.1-23.48S1215.26,479,1228,479c8,0,13.53,3,17.49,7.75l-6.76,7.42c-2.64-4.23-6.11-5.83-10.12-5.83-6.38,0-11.55,6.33-11.55,14.19,0,7.7,5.17,14,11.55,14,4.95,0,9.84-3.19,9.84-8.74H1228v-8h21Z"/><path class="cls-36" d="M1263.88,525.2h-10.33V479.83h10.33Z"/><path class="cls-36" d="M1311.84,525.2h-11.11l-3.35-9.07h-17.27l-3.36,9.07h-11.1L1284,479.83h9.57Zm-27.77-53.51c-1.76,0-2.48,2.53-2.48,2.53H1276s1.43-9.46,7.48-9.46a20.21,20.21,0,0,1,5.72,1.49,11.6,11.6,0,0,0,4.18,1c1.76,0,2.47-2.53,2.47-2.53h5.56s-1.43,9.46-7.48,9.46a20.21,20.21,0,0,1-5.72-1.48A11.52,11.52,0,0,0,1284.07,471.69Zm4.73,22.16h-.11l-5.06,13.2h10.23Z"/><path class="cls-36" d="M1334.45,479c12.59,0,22.82,10.22,22.82,23.48S1347.48,526,1334.45,526c-13.42,0-22.88-10.28-22.88-23.53A23.09,23.09,0,0,1,1334.45,479Zm0,37c8.25,0,11.66-6.77,11.66-13.53S1342.48,489,1334.45,489s-11.72,6.76-11.72,13.53S1326,516,1334.45,516Z"/><text class="cls-37" transform="translate(790.5 302.34)">APOCA</text><text class="cls-38" transform="translate(792.24 393.2)"><tspan class="cls-39">AS</tspan><tspan x="77.88" y="0">SOCI</tspan><tspan class="cls-40" x="221.43" y="0">A</tspan><tspan x="262.79" y="0">ÇÃO DOS </tspan><tspan class="cls-41" x="551.37" y="0">P</tspan><tspan class="cls-40" x="584.48" y="0">A</tspan><tspan x="625.84" y="0">CIE</tspan><tspan class="cls-42" x="716.1" y="0">N</tspan><tspan x="758.89" y="0">TES </tspan><tspan x="-24.97" y="66">O</tspan><tspan class="cls-40" x="23.27" y="66">N</tspan><tspan x="66.94" y="66">COLÓG</tspan><tspan class="cls-40" x="281.49" y="66">I</tspan><tspan x="296.67" y="66">COS DE</tspan><tspan class="cls-40" x="510.78" y="66"> </tspan><tspan x="524.04" y="66">CANOINH</tspan><tspan class="cls-39" x="806.51" y="66">A</tspan><tspan x="848.54" y="66">S </tspan><tspan x="294.22" y="132">E REGIÃO</tspan></text></g></g></svg>