<svg width="1030.47472" height="865.22829" xmlns="http://www.w3.org/2000/svg">
 <title>healthy_options</title>

 <g>
  <title>background</title>
  <rect fill="none" id="canvas_background" height="602" width="802" y="-1" x="-1"/>
 </g>
 <g>
  <title>Layer 1</title>
  <path id="svg_1" fill="#3f3d56" d="m274.46281,526c-2.77441,0 -5.57715,-0.04394 -8.32812,-0.12988l0.0625,-1.99805c3.95019,0.12305 7.98144,0.15723 11.95019,0.10254l0.02734,2q-1.85303,0.02492 -3.71191,0.02539zm15.74512,-0.46386l-0.11719,-1.9961c3.95605,-0.2334 7.96289,-0.56152 11.90918,-0.97461l0.209,1.98829c-3.97656,0.41699 -8.01369,0.74804 -12.00099,0.98243l0,-0.00001zm-36.09571,-0.31153c-3.98925,-0.30566 -8.0205,-0.70605 -11.98242,-1.19238l0.24414,-1.98437c3.93164,0.48144 7.93164,0.87988 11.89063,1.18261l-0.15235,1.99414zm60.03907,-2.19922l-0.29981,-1.97656c3.93067,-0.59668 7.8916,-1.28906 11.76953,-2.05957l0.38965,1.96094c-3.9082,0.77637 -7.89844,1.47461 -11.85937,2.07519zm-83.93506,-0.73144c-3.94092,-0.668 -7.91895,-1.43555 -11.82324,-2.2832l0.42431,-1.95508c3.87451,0.8418 7.82178,1.60351 11.73291,2.26562l-0.33398,1.97266zm107.54834,-3.96191l-0.48047,-1.94141c3.8584,-0.9541 7.73828,-2.00879 11.53223,-3.13379l0.56836,1.918c-3.82325,1.13376 -7.73243,2.19631 -11.62012,3.1572zm-131.07621,-1.14649c-3.86573,-1.02832 -7.75586,-2.15918 -11.5625,-3.36328l0.60254,-1.90625c3.77783,1.19434 7.63818,2.31641 11.47363,3.33594l-0.51367,1.93359zm154.1582,-5.70117l-0.65625,-1.88867c3.74414,-1.30176 7.50977,-2.709 11.19434,-4.1836l0.74218,1.85743c-3.71187,1.48535 -7.50679,2.90332 -11.28023,4.21484l-0.00004,0zm-177.14551,-1.56641c-3.75439,-1.37988 -7.53222,-2.86914 -11.22754,-4.42578l0.77637,-1.84375c3.667,1.54492 7.41553,3.02246 11.1416,4.39258l-0.69043,1.87695zm199.47461,-7.36816l-0.82812,-1.82031c3.5957,-1.63379 7.21,-3.37793 10.74218,-5.1836l0.91016,1.78125c-3.55952,1.81934 -7.20113,3.57617 -10.82418,5.22266l-0.00004,0zm21.39844,-10.93848l-0.99024,-1.73633c3.44825,-1.96777 6.89063,-4.03613 10.2295,-6.14843l1.06836,1.68945c-3.36422,2.12891 -6.832,4.21387 -10.30758,6.19531l-0.00004,0zm20.32326,-12.85742l-1.14453,-1.63867c3.24707,-2.26856 6.4873,-4.64453 9.63086,-7.06055l1.21875,1.58594c-3.16697,2.43457 -6.4326,4.82812 -9.70508,7.11328zm-304.82568,-2.81641c-3.228,-2.34472 -6.45264,-4.80078 -9.585,-7.30175l1.248,-1.5625c3.1084,2.48144 6.3086,4.91894 9.51172,7.24511l-1.17472,1.61914zm323.90283,-11.8457l-1.28906,-1.5293c3.02636,-2.55371 6.03808,-5.21484 8.95312,-7.91015l1.35742,1.46875c-2.9365,2.71582 -5.97163,5.39746 -9.02146,7.9707l-0.00002,0zm-342.728,-3.18555c-3.00635,-2.63281 -5.99316,-5.37109 -8.87695,-8.13964l1.38476,-1.44336c2.86231,2.748 5.82618,5.46582 8.80957,8.0791l-1.31738,1.5039zm360.40085,-13.1611l-1.42383,-1.4043c2.79,-2.82714 5.54981,-5.75293 8.20117,-8.69531l1.48633,1.33789c-2.67185,2.96579 -5.45213,5.91306 -8.26367,8.76172zm-377.773,-3.51172c-2.7583,-2.90039 -5.48242,-5.89843 -8.09668,-8.91015l1.51074,-1.31055c2.59424,2.98926 5.29737,5.96387 8.03516,8.8418l-1.44922,1.3789zm393.89307,-14.37988l-1.54492,-1.26953c2.5205,-3.06738 5.00195,-6.23242 7.37793,-9.40918l1.60156,1.19726c-2.39349,3.20115 -4.89446,6.39158 -7.4345,9.48142l-0.00007,0.00003zm-409.6709,-3.79688c-2.477,-3.12988 -4.916,-6.36132 -7.24951,-9.60449l1.623,-1.168c2.31592,3.21778 4.73633,6.42481 7.19483,9.53223l-1.56832,1.24026zm424.09961,-15.49707l-1.6543,-1.123c2.23047,-3.28418 4.415,-6.66406 6.49219,-10.04785l1.70508,1.04687c-2.09466,3.40911 -4.29583,6.81536 -6.5429,10.12395l-0.00007,0.00003zm-438.15078,-4.02932c-2.1792,-3.34082 -4.312,-6.77832 -6.33984,-10.21973l1.72265,-1.01562c2.0127,3.415 4.1294,6.82714 6.292,10.1416l-1.67481,1.09375zm450.76611,-16.51074l-1.75,-0.9668c1.91993,-3.47461 3.78516,-7.043 5.5459,-10.60645l1.793,0.88672c-1.7735,3.58985 -3.65436,7.18555 -5.58893,10.68653l0.00003,0zm10.68067,-21.6211l-1.832,-0.80273c1.59375,-3.63965 3.124,-7.36719 4.54882,-11.07813l1.86719,0.7168c-1.43561,3.74023 -2.97857,7.49609 -4.58404,11.16406l0.00003,0zm-483.90238,-4.31543c-1.5332,-3.67969 -3.00146,-7.44433 -4.36377,-11.19043l1.87989,-0.68359c1.35156,3.71777 2.80859,7.45312 4.32959,11.10449l-1.84571,0.76953zm492.55078,-18.21586l-1.89843,-0.6289c1.248,-3.76075 2.42578,-7.6045 3.5,-11.42579l1.92578,0.541c-1.08301,3.85069 -2.27053,7.72469 -3.52735,11.51369zm-500.76709,-4.38281c-1.18994,-3.81152 -2.3081,-7.70508 -3.32324,-11.57422l1.93457,-0.50781c1.00733,3.83984 2.11719,7.7041 3.29785,11.48633l-1.90918,0.5957zm507.28565,-18.79492l-1.94824,-0.45313c0.89551,-3.85449 1.71386,-7.791 2.43359,-11.69824l1.9668,0.36133c-0.72461,3.93851 -1.54981,7.90434 -2.45215,11.79008l0,-0.00004zm-513.394,-4.49414c-0.834,-3.90625 -1.58887,-7.88575 -2.24317,-11.83008l1.97266,-0.32813c0.6499,3.915 1.39892,7.86426 2.22656,11.74024l-1.95605,0.41797zm517.75244,-19.1836l-1.98242,-0.27148c0.53808,-3.917 0.99218,-7.91113 1.35058,-11.87207l1.99219,0.17969c-0.36137,3.99222 -0.81938,8.01664 -1.36039,11.9639l0.00004,-0.00004zm-521.69385,-4.5664c-0.47168,-3.959 -0.85889,-7.99121 -1.15137,-11.98438l1.99512,-0.14648c0.28955,3.96386 0.67432,7.96484 1.14258,11.89453l-1.98633,0.23633zm523.86861,-19.40913l-1.998,-0.08985c0.17773,-3.96289 0.26855,-7.98242 0.26855,-11.94629l2,0c-0.00004,3.99414 -0.09086,8.04394 -0.27055,12.03614zm-525.62594,-4.60158c-0.06836,-2.45214 -0.103,-4.9541 -0.10352,-7.43457q0,-2.30859 0.03955,-4.60839l2,0.03515q-0.03955,2.28223 -0.03955,4.57324c0.00049,2.46192 0.03516,4.94532 0.10254,7.37989l-1.99902,0.05468zm2.41064,-23.94775l-1.99609,-0.125c0.24951,-3.99609 0.59424,-8.03223 1.02343,-11.99658l1.98829,0.21533c-0.42627,3.93458 -0.76761,7.93994 -1.01566,11.90625l0.00003,0zm520.19446,-12.20159c-0.39942,-3.94287 -0.94885,-5.8653 -1.52893,-9.79109l1.97851,-0.292c0.584,3.95557 1.085,6.9751 1.48828,10.94776l-1.93786,-0.86467zm-517.62174,-11.55134l-1.97656,-0.30566c0.61279,-3.95655 1.32471,-7.94434 2.11621,-11.854l1.96,0.39649c-0.78519,3.87987 -1.49174,7.83743 -2.09965,11.76317zm514.07422,-10.01562c-0.76269,-3.90137 -1.623,-7.82862 -2.55859,-11.67237l1.94336,-0.47265c0.94238,3.873 1.80957,7.83056 2.57812,11.76123l-1.96289,0.38379zm-509.33691,-13.40137l-1.93994,-0.48633c0.97119,-3.87353 2.04687,-7.7793 3.19726,-11.60937l1.915,0.57519c-1.14107,3.80076 -2.20845,7.67676 -3.17232,11.52051zm503.68457,-9.81348c-1.11523,-3.8081 -2.334,-7.63867 -3.62207,-11.38672l1.89062,-0.65039c1.29883,3.77686 2.52735,7.6377 3.65137,11.47461l-1.91992,0.5625zm-496.79981,-13.1001l-1.88671,-0.66308c1.3291,-3.78076 2.76416,-7.57959 4.26513,-11.291l1.85449,0.75c-1.48974,3.6826 -2.91406,7.45262 -4.23291,11.20408zm489.03321,-9.49462c-1.459,-3.68067 -3.02149,-7.37452 -4.64453,-10.9795l1.82422,-0.82129c1.63574,3.63282 3.21,7.355 4.67968,11.06348l-1.85937,0.73731zm-480.05664,-12.70264l-1.81739,-0.835c1.67041,-3.6377 3.44825,-7.28565 5.28418,-10.84229l1.77735,0.917c-1.82227,3.52982 -3.58643,7.14994 -5.24414,10.76029zm470.26855,-9.03565c-1.79,-3.53076 -3.68652,-7.06884 -5.63672,-10.51464l1.74024,-0.98536c1.96582,3.47266 3.876,7.0376 5.67969,10.59571l-1.78321,0.90429zm-459.2915,-12.22949l-1.7334,-0.998c1.99512,-3.46436 4.09912,-6.93213 6.25391,-10.30616l1.68554,1.07617c-2.13818,3.3486 -4.22656,6.79 -6.20605,10.22799zm447.5415,-8.53515c-2.11328,-3.36426 -4.32617,-6.71582 -6.57715,-9.96192l1.64258,-1.13965c2.26856,3.271 4.499,6.64795 6.62793,10.03809l-1.69336,1.06348zm-434.66846,-11.62354l-1.63476,-1.15234c2.30566,-3.27 4.71631,-6.5293 7.1665,-9.6875l1.58008,1.22558c-2.43115,3.13477 -4.82422,6.36918 -7.11182,9.61426zm421.064,-7.99219c-2.41016,-3.15674 -4.91992,-6.29492 -7.46191,-9.32715l1.5332,-1.28466c2.56055,3.05566 5.08984,6.21728 7.51855,9.39795l-1.58984,1.21386zm-406.41067,-10.89889l-1.52247,-1.29688c2.58741,-3.03906 5.28418,-6.064 8.01514,-8.99072l1.46192,1.36426c-2.71001,2.90475 -5.38624,5.90719 -7.95459,8.92334zm391.06982,-7.40821c-2.68652,-2.92431 -5.47363,-5.82275 -8.28223,-8.61377l1.41016,-1.41894c2.83008,2.813 5.63769,5.73291 8.34473,8.6792l-1.47266,1.35351zm-374.76514,-10.06399l-1.39843,-1.42969c2.85986,-2.79785 5.81933,-5.564 8.79541,-8.22119l1.332,1.49219c-2.95359,2.63672 -5.8906,5.38183 -8.72898,8.15869zm357.8179,-6.7798c-2.94433,-2.67041 -5.98437,-5.30419 -9.03515,-7.82812l1.27539,-1.541c3.07324,2.543 6.13672,5.19678 9.10351,7.8877l-1.34375,1.48142zm-339.99954,-9.13182l-1.26269,-1.55078c3.09326,-2.519 6.29,-5.00342 9.502,-7.38428l1.19141,1.60645c-3.18804,2.36328 -6.36089,4.82861 -9.43072,7.32861zm19.18213,-14.21729l-1.11621,-1.65918c3.31055,-2.22754 6.71875,-4.40869 10.13037,-6.48437l1.03906,1.709c-3.38525,2.05955 -6.76757,4.22459 -10.05322,6.43455zm20.3877,-12.40136l-0.96,-1.75489c3.50244,-1.9165 7.09375,-3.77588 10.67382,-5.52734l0.87891,1.79687c-3.55269,1.73783 -7.11666,3.58301 -10.59273,5.48536zm241.37011,-4.63379c-3.55859,-1.773 -7.2041,-3.48584 -10.835,-5.09082l0.8086,-1.8291c3.65918,1.61718 7.333,3.34326 10.91894,5.12988l-0.89254,1.79004zm-219.94824,-5.84424l-0.79492,-1.835c3.66016,-1.58643 7.4043,-3.10791 11.12793,-4.52246l0.71,1.87011c-3.69535,1.40336 -7.41068,2.91313 -11.04301,4.48735zm198.05176,-3.8345c-3.70313,-1.436 -7.49316,-2.80616 -11.26563,-4.07178l0.63672,-1.89649c3.80078,1.27588 7.62012,2.65625 11.35157,4.104l-0.72266,1.86427zm-175.74316,-4.63669l-0.623,-1.90039c3.80078,-1.2461 7.67871,-2.41944 11.52539,-3.48633l0.53467,1.92676c-3.81744,1.05908 -7.66558,2.22314 -11.43706,3.45996zm153.06347,-2.97364c-3.81445,-1.0874 -7.70508,-2.10009 -11.56347,-3.00976l0.459,-1.94629c3.88867,0.9165 7.80859,1.937 11.65332,3.03223l-0.54885,1.92382zm-130.0415,-3.41552l-0.44531,-1.94971c3.89648,-0.89014 7.86572,-1.70117 11.79687,-2.41016l0.35547,1.96778c-3.90186,0.7041 -7.84033,1.50879 -11.70703,2.39209zm106.7876,-2.0669c-3.89454,-0.73095 -7.86133,-1.38135 -11.791,-1.9331l0.27734,-1.98047c3.96,0.55615 7.958,1.21142 11.88282,1.94775l-0.36916,1.96582zm-83.2754,-2.17625l-0.26464,-1.98242c3.959,-0.52832 7.98535,-0.97266 11.96679,-1.31933l0.17383,1.99218c-3.95117,0.34471 -7.94629,0.78514 -11.87598,1.30957zm59.61622,-1.14746c-3.93946,-0.37109 -7.94922,-0.65722 -11.91895,-0.84912l0.09766,-1.998c3.999,0.19385 8.03906,0.48194 12.00879,0.856l-0.1875,1.99112zm-35.81446,-0.9292l-0.084,-1.998c3.67578,-0.15332 7.42187,-0.23145 11.13574,-0.23243l0.90527,0.00147l-0.00586,2l-0.89941,-0.00147c-3.68553,0.00092 -7.40428,0.07856 -11.05174,0.23041l0,0.00002z"/>
  <path id="svg_2" fill="#3f3d56" d="m596.24118,94.20608l0,648.19995a29.13911,29.13911 0 0 1 -29.13,29.11005l-263.15,0a29.0791,29.0791 0 0 1 -29.13,-29.11l0,-648.2a29.12749,29.12749 0 0 1 29.13,-29.13l39.38,0l0,5.05a23.987,23.987 0 0 0 23.98,23.99l133.84,0a23.78923,23.78923 0 0 0 14.22,-4.68a22.28455,22.28455 0 0 0 2.36,-1.98a23.917,23.917 0 0 0 7.4,-17.33l0,-5.05l41.97,0a29.12108,29.12108 0 0 1 29.13,29.13z"/>
  <rect id="svg_3" fill="#536dfe" height="186" width="244.46459" y="298.74611" x="313.30389"/>
  <path id="svg_4" fill="#536dfe" d="m184.57136,267.40679c21.7658,0.4669 39.08024,16.24012 39.08024,16.24012s-17.97491,15.01622 -39.74071,14.54931s-39.08022,-16.24007 -39.08022,-16.24007s17.9749,-15.01626 39.74069,-14.54936z"/>
  <path id="svg_5" fill="#536dfe" d="m75.14404,193.1088c19.66446,9.34222 42.21331,3.00713 42.21331,3.00713s-9.33355,-21.48183 -28.998,-30.824s-42.21331,-3.00713 -42.21331,-3.00713s9.33353,21.48178 28.998,30.824z"/>
  <path id="svg_6" fill="#3f3d56" d="m77.14298,183.82502c21.68046,-1.98136 40.65734,11.74679 40.65734,11.74679s-16.17409,16.94056 -37.85456,18.92192s-40.65734,-11.74679 -40.65734,-11.74679s16.1741,-16.94056 37.85456,-18.92192z"/>
  <path id="svg_7" fill="#3f3d56" d="m156.61678,187.57863c-2.07806,21.67141 11.56528,40.70935 11.56528,40.70935s17.01256,-16.09836 19.09062,-37.76977s-11.56532,-40.70934 -11.56532,-40.70934s-17.01251,16.09835 -19.09058,37.76976z"/>
  <path id="svg_8" fill="#3f3d56" d="m258.72103,320.48872c-11.37151,18.56494 -7.45916,41.65774 -7.45916,41.65774s22.34921,-7.00691 33.72072,-25.57185s7.45917,-41.65774 7.45917,-41.65774s-22.34921,7.00691 -33.72073,25.57185z"/>
  <path id="svg_9" fill="#3f3d56" d="m225.73082,522.33731l1.65722,-1.12011a51.91882,51.91882 0 0 1 -9.16308,-28.79249c0.0464,-15.05756 7.4424,-28.98486 14.59521,-42.45356c1.32764,-2.5 2.65088,-4.99219 3.92383,-7.48242a163.33418,163.33418 0 0 0 12.7041,-31.89258c11.09473,-41.23 0.17139,-89.87353 -29.21924,-130.12207c-23.31543,-31.92871 -58.07177,-59.84863 -106.2539,-85.35547l-0.93555,1.76758c47.90772,25.36133 82.44141,53.08936 105.57422,84.76758c29.03711,39.76367 39.8418,87.77246 28.90283,128.42285a161.39429,161.39429 0 0 1 -12.55273,31.50195c-1.269,2.481 -2.58741,4.96338 -3.91016,7.45459c-7.2666,13.6836 -14.78076,27.833 -14.82861,43.38575a53.937,53.937 0 0 0 9.50586,29.9184z"/>
  <circle id="svg_10" fill="#3f3d56" r="19" cy="178.74651" cx="19.00039"/>
  <polygon id="svg_11" fill="#536dfe" points="286.462 487.161 167.193 477.222 167.193 302.294 286.462 296.331 286.462 487.161"/>
  <polygon id="svg_12" fill="#536dfe" points="584.61 487.161 703.879 477.222 703.879 302.294 584.61 296.331 584.61 487.161"/>
  <path id="svg_13" fill="#fff" d="m476.99395,368.5596a23.83091,23.83091 0 0 0 -26.1499,-3.32422a35.29319,35.29319 0 0 1 -11.6073,3.32074a67.1811,67.1811 0 0 1 4.71862,-25.51606l0.52735,-1.36132l-7.00977,0l-0.20117,0.73584a77.58937,77.58937 0 0 0 -1.843,8.725a22.62232,22.62232 0 0 0 -1.46655,-3.70257c-4.917,-9.74854 -16.27783,-13.73584 -16.75928,-13.90039l-0.96875,-0.332l-0.30908,0.97608c-0.15332,0.48535 -3.70068,11.99072 1.21582,21.73975c3.5202,6.97991 10.34271,11.00531 14.11151,12.78973a36.26579,36.26579 0 0 1 -13.71844,-3.66962a15.99952,15.99952 0 0 0 -16.938,1.42969c-13.08838,9.9458 -20.59522,24.5249 -20.59522,39.99951c0,20.32813 13.16456,38.94434 33.53858,47.42676a15.08751,15.08751 0 0 0 5.79834,1.15137a15.37923,15.37923 0 0 0 7.85107,-2.15332a20.76632,20.76632 0 0 1 20.8086,-0.042a15.34188,15.34188 0 0 0 13.66015,0.96192c20.25537,-8.51563 33.34326,-27.09961 33.34326,-47.34473c-0.00001,-14.49073 -6.39551,-27.95411 -18.00684,-37.91016zm-37.99072,-24.88086l2.57373,0a68.95677,68.95677 0 0 0 -4.356,24.24121l-0.45947,0a72.747,72.747 0 0 1 2.24174,-24.24121zm-20.07618,11.3413c-3.73291,-7.40087 -2.0957,-16.22216 -1.37207,-19.19873c2.82276,1.18457 10.88135,5.10157 14.6211,12.51612c3.73193,7.3999 2.0957,16.21972 1.37207,19.19775c-2.82471,-1.18848 -10.88965,-5.11572 -14.6211,-12.51514zm41.95508,96.95069a13.32227,13.32227 0 0 1 -11.8706,-0.84278a22.76607,22.76607 0 0 0 -22.84424,0.04786a13.31121,13.31121 0 0 1 -11.85938,0.875c-19.626,-8.1709 -32.30713,-26.0625 -32.30713,-45.58106c0,-14.84375 7.21875,-28.84277 19.80518,-38.40674a13.85584,13.85584 0 0 1 8.38574,-2.7998a14.01605,14.01605 0 0 1 6.4253,1.55469a41.28479,41.28479 0 0 0 35.11669,0.20849a21.83042,21.83042 0 0 1 23.95752,3.05176c11.16211,9.56982 17.30957,22.49365 17.30957,36.3916c0,19.43848 -12.60742,37.29785 -32.11865,45.50098z"/>
  <path id="svg_14" fill="#fff" d="m226.50078,349.66015l0,-2.34766l0.93311,0l0,-7.314a2.95838,2.95838 0 0 0 -1.58057,-2.63721c-4.12744,-2.15332 -8.563,-2.15088 -13.18359,0.01026a2.98091,2.98091 0 0 0 -1.70215,2.69726l0,7.24365l0.93311,0l0,2.12549a16.2982,16.2982 0 0 0 -11.89991,15.75782l0,15.82617l1.77735,0.59277l-1.77735,1.18457l0,4.75586l1.77735,0.59277l-1.77735,1.18506l0,4.75586l1.77735,0.59229l-1.77735,1.18506l0,36.22265a10.66945,10.66945 0 0 0 10.65674,10.65733l15.71045,0a10.64474,10.64474 0 0 0 10.63281,-10.63281l0,-36.2471l-1.77734,-1.18506l1.77734,-0.59229l0,-4.75586l-1.77734,-1.18506l1.77734,-0.59277l0,-4.75586l-1.77734,-1.18457l1.77734,-0.59277l0,-16.64356a15.64615,15.64615 0 0 0 -10.5,-14.71829zm-12.98437,-10.477c4.08447,-1.90771 7.81787,-1.92383 11.41113,-0.04834a0.9755,0.9755 0 0 1 0.50635,0.86377l0,3.91406l-12.46631,0l0,-3.84375a0.97494,0.97494 0 0 1 0.54883,-0.88574zm21.48437,40.39746l-4.28906,1.42969l4.28906,2.85937l0,2.24414l-4.28906,1.42969l4.28906,2.85987l0,2.24414l-4.28906,1.4292l4.28906,2.85986l0,35.17676a8.64276,8.64276 0 0 1 -8.63281,8.63281l-15.71045,0a8.66684,8.66684 0 0 1 -8.65674,-8.65723l0,-35.15236l4.28907,-2.85986l-4.28907,-1.4292l0,-2.24414l4.28907,-2.85987l-4.28907,-1.42969l0,-2.24414l4.28907,-2.85937l-4.28907,-1.42969l0,-14.38476a14.31179,14.31179 0 0 1 11.12549,-14.00831l0.77442,-0.17919l0,-3.69581l10.60009,0l0,3.83008l0.7212,0.20948a13.62951,13.62951 0 0 1 9.7788,13.02636l0,15.20217z"/>
  <path id="svg_15" fill="#fff" d="m696.56426,377.04788l-5.03515,-1.00635l1.18554,-2.37109l-2.30957,-0.46241l0.39942,-2.40136l-2.52149,-0.4209l0,-2.27783l-2.0459,-0.58448l1.94239,-2.42724l-3.37014,0l0.7041,-1.75782l-2.49219,-0.415l0.84571,-2.96386l-2.69629,0l0,-2.76563l-1,0c-3.15039,0 -4.90723,3.74219 -5.48438,5.24073c-17.39258,3.0332 -67.8916,38.01171 -73.65527,42.03417c-2.39453,-0.77685 -5.94629,1.04395 -6.6875,1.44825l-1.17383,0.64013l1.69336,1.69287l-0.50488,1.51368l3.10742,1.165l-0.68067,1.70117l1.957,1.63183l-1.75782,1.31934l2.64551,1.58789l-0.46484,2.32031l2.95508,0.42285l0,2.32227l1.71582,0.34375l-0.85547,2.998l1.90527,0l0,2.37109l1.85938,0l0.84277,2.52539l0.86523,-0.17383c2.01172,-0.40234 3.73438,-3.18554 4.40821,-4.41992c16.75,-2.98926 68.46386,-39.373 73.498,-42.936c5.876,0.7041 8.03516,-0.86621 8.2666,-1.05079l0.95606,-0.76513l-2.2832,-1.90186l3.26572,-2.17722zm-10.334,3.86279l-0.38965,-0.05225l-0.32129,0.228c-0.57129,0.40576 -57.28516,40.58545 -73.45313,42.895l-0.51855,0.07422l-0.23438,0.46875a12.00459,12.00459 0 0 1 -2.47363,3.38183l-0.65332,-1.959l-1.30078,0l0,-2.37109l-1.25488,0l0.72461,-2.53321l-2.23535,-0.44726l0,-2.418l-2.57813,-0.36816l0.32617,-1.63086l-1.30566,-0.78321l1.40234,-1.05176l-2.7832,-2.31933l0.89941,-2.25l-3.21484,-1.20606l0.28613,-0.85742l-0.62109,-0.62207c1.502,-0.624 3.31836,-1.08838 4.09863,-0.62158l0.55762,0.33447l0.53125,-0.373c0.56738,-0.398 56.89648,-39.79639 73.8457,-42.10743l0.63281,-0.08642l0.18848,-0.61035c0.291,-0.94532 1.32617,-3.3335 2.78516,-4.15088l0,2.48584l2.0459,0l-0.73438,2.56836l2.25,0.375l-0.87793,2.19336l2.16308,0l-1.21973,1.5249l3.48535,0.9956l0,2.46349l2.2207,0.37012l-0.38964,2.33984l1.6416,0.32764l-1.18555,2.37109l2.86719,0.57373l-1.47656,0.98389l2.123,1.76953a15.9767,15.9767 0 0 1 -5.85344,0.09468l-0.00002,0z"/>
  <circle id="svg_16" fill="#536dfe" r="29" cy="540.74611" cx="435.53619"/>
  <polygon id="svg_17" fill="#fff" points="453.795 537.882 438.4 537.882 438.4 522.487 432.672 522.487 432.672 537.882 417.277 537.882 417.277 543.61 432.672 543.61 432.672 559.005 438.4 559.005 438.4 543.61 453.795 543.61 453.795 537.882"/>
  <polygon id="svg_18" fill="#fff" points="527.001 541.746 512.001 534.746 512.001 538.746 477.001 538.746 477.001 544.746 512.001 544.746 512.001 548.746 527.001 541.746"/>
  <polygon id="svg_19" fill="#fff" points="344.072 541.746 359.072 534.746 359.072 538.746 394.072 538.746 394.072 544.746 359.072 544.746 359.072 548.746 344.072 541.746"/>
  <rect id="svg_21" fill="#fff" height="2" width="191.99951" y="159.74611" x="339.53643"/>
  <rect id="svg_22" fill="#fff" height="2" width="192" y="705.74611" x="340.00079"/>
  <path id="svg_23" fill="#a0616a" d="m840.50078,508.24615l-5,19s-18,40 0,42s19,-52 19,-52l-14,-9z"/>
  <path id="svg_24" fill="#d0cde1" d="m871.50078,371.24615l-36,142s14,4 21,9l15,-151z"/>
  <path id="svg_25" fill="#2f2e41" d="m984.50078,479.24615l10,155s24,61 23,119c0,0 -9,23 -2,27s11,7 7,10s-7,10 -4,12s4,5 3,5l-30,0s6,-15 -3,-19s-4,-14 -4,-14l-67,-196l-53,180s9,6 2,9s-10,-3 -7,3s-1,9 -1,10s-30,-3 -30,-3s15,-13 8,-16s-10,-6 -8,-8s10,-21 10,-21s4,-72 5,-75s0,-17 0,-24s-1,-35 2,-42s6,-93 22,-103s117,-9 117,-9z"/>
  <path id="svg_26" fill="#2f2e41" d="m857.50078,775.24615s20,41 6,46s-32,1 -36,7s-48,13 -49,-2s48,-43 48,-43l6.383,-10.278l24.617,2.278z"/>
  <path id="svg_27" fill="#2f2e41" d="m1019.50078,805.24615s20,41 6,46s-32,1 -36,7s-48,13 -49,-2s48,-43 48,-43l6.38295,-10.278l24.61705,2.278z"/>
  <circle id="svg_28" fill="#a0616a" r="33" cy="257.74611" cx="927.00079"/>
  <polygon id="svg_29" fill="#a0616a" points="949.501 275.246 945.501 304.246 915.501 327.246 907.501 316.246 907.501 278.246 949.501 275.246"/>
  <path id="svg_30" fill="#3f3d56" d="m902.50078,312.24615s31,3 47,-8l32,189s-113,9 -118,3l0,-59l20,-96l19,-29z"/>
  <path id="svg_31" fill="#d0cde1" d="m946.74716,295.20991l10.75362,9.03621s44,7 41,19l-12,142l4,48s-34,-9 -60,0s-5.34342,-193.40334 -5.34342,-193.40334s23.83617,-21.66907 21.5898,-24.63287z"/>
  <path id="svg_32" fill="#d0cde1" d="m907.50078,306.15557s-32,23.09055 -36,38.09055s-17,173 -17,173s6,-3 9,2s49,-205.1811 44,-213.09055z"/>
  <path id="svg_33" fill="#a0616a" d="m995.50078,515.24615l-7.16829,23.39148s-1.83171,43.60852 -25.83171,37.60852s7,-57 7,-57l7,-11l19,7z"/>
  <path id="svg_34" fill="#2f2e41" d="m894.01663,256.30834s-3.57245,-5.35868 -2.19843,-11.12957a33.7312,33.7312 0 0 0 0.96181,-10.03035s2.88544,-9.34334 5.77089,-14.56462s1.51142,-7.41971 10.58,-9.06854s5.35868,-13.4654 29.26664,-0.687a7.01143,7.01143 0 0 0 7.28231,2.74805c4.94647,-0.96182 6.7327,5.90828 6.7327,5.90828s3.29765,-1.92362 4.53427,0.82442s10.054,-1.64932 10.054,16.89995s-10.03387,35.11857 -10.03387,35.11857s0.73558,-31.20211 -15.61527,-34.36236s-33.93831,-12.36618 -38.19777,-0.54961a90.08081,90.08081 0 0 1 -9.13728,18.89278z"/>
  <ellipse id="svg_35" fill="#a0616a" ry="4.30023" rx="3.22517" cy="259.42682" cx="957.32526"/>
  <path id="svg_36" fill="#d0cde1" d="m990.50078,316.24615s16,-4 21,23s11,104 11,104l-24,81s-24,-13 -29,-11l18.88627,-70.32086l-15.88627,-71.67914s14,-55 18,-55z"/>
  <polygon id="svg_37" opacity="0.15" points="967.237 372.614 988.237 442.614 967.237 513.614 979.237 442.614 967.237 372.614"/>
 </g>
</svg>