<svg width="534.64144" height="387.64173" xmlns="http://www.w3.org/2000/svg">

 <g>
  <title>background</title>
  <rect fill="none" id="canvas_background" height="602" width="802" y="-1" x="-1"/>
 </g>
 <g>
  <title>Layer 1</title>
  <path id="svg_1" fill="#f2f2f2" d="m107.12411,367.62086c-0.829,6.5126 -3.46969,12.57444 -6.59308,18.41084c-0.28184,0.53935 -0.57153,1.07875 -0.86949,1.61005l-51.89166,0c-1.06249,-0.49106 -2.10925,-1.03046 -3.13164,-1.61005a44.53957,44.53957 0 0 1 -3.93628,-2.51972c-15.30366,-11.02075 -21.19628,-31.86277 -18.53161,-50.53122c1.65014,-11.6084 6.73773,-23.45029 16.65585,-29.69721a25.00785,25.00785 0 0 1 17.98406,-3.14767c0.1529,0.02418 0.31407,0.06442 0.47483,0.0966a18.55074,18.55074 0 0 1 12.42988,8.73452c4.72518,8.39637 1.91586,18.79723 -0.41076,28.14352c-2.31837,9.34634 -3.57425,20.53611 3.15562,27.4271a17.15393,17.15393 0 0 1 19.9404,-22.29911c0.491,0.10465 0.96619,0.22543 1.441,0.37032a15.6463,15.6463 0 0 1 3.28455,1.36855c7.92957,4.4276 11.1414,14.63527 9.99833,23.64348z"/>
  <path id="svg_2" fill="#fff" d="m70.72125,386.03168q1.91979,0.88147 3.904,1.61005l-3.68706,0c-1.1187,-0.49911 -2.22167,-1.03046 -3.30853,-1.61005a45.68134,45.68134 0 0 1 -13.9106,-11.08516a37.078,37.078 0 0 1 -5.73185,-9.37042a42.48877,42.48877 0 0 1 -2.93825,-11.99484a85.18388,85.18388 0 0 1 1.69063,-25.43065a105.81974,105.81974 0 0 1 8.29156,-24.87514c0.45086,-0.94992 0.9257,-1.89183 1.40879,-2.82564a0.538,0.538 0 0 1 0.37028,-0.314a0.60157,0.60157 0 0 1 0.47483,0.0966a0.74644,0.74644 0 0 1 0.298,0.99021a104.40613,104.40613 0 0 0 -8.79864,23.98158a92.05557,92.05557 0 0 0 -2.61632,24.95567c0.34591,7.7926 2.38283,15.46448 7.01171,21.84024a44.114,44.114 0 0 0 16.49469,13.54047c0.3463,0.16905 0.69222,0.33007 1.04676,0.49108z"/>
  <path id="svg_3" fill="#fff" d="m92.59363,386.03168c0.35416,0.54741 0.7323,1.08676 1.14306,1.61005l-1.7146,0c-0.37853,-0.52329 -0.73269,-1.06264 -1.079,-1.61005a39.64547,39.64547 0 0 1 -5.46613,-13.83026a38.594,38.594 0 0 1 3.3329,-24.01381a39.44754,39.44754 0 0 1 3.59036,-5.94912c0.491,0.10465 0.96619,0.22543 1.441,0.37032a37.92608,37.92608 0 0 0 -7.07617,16.22922a37.34565,37.34565 0 0 0 3.29241,22.79822a35.59127,35.59127 0 0 0 2.53617,4.39543z"/>
  <path id="svg_4" fill="#3f3d56" d="m533.64143,24.36962l-169,0a1,1 0 0 1 0,-2l169,0a1,1 0 0 1 0,2z"/>
  <path id="svg_5" fill="#ccc" d="m478.64143,7.99999l-57,0a4,4 0 0 1 0,-8l57,0a4,4 0 1 1 0,8z"/>
  <path id="svg_6" fill="#e6e6e6" d="m419.00671,197.8945a4.31988,4.31988 0 0 1 -0.8074,-3.70516a102.3282,102.3282 0 0 0 -0.0003,-47.52515a4.321,4.321 0 0 1 0.8077,-3.70516a4.24783,4.24783 0 0 1 3.35526,-1.62564l39.87224,0a4.30186,4.30186 0 0 1 4.23709,3.60571a167.48663,167.48663 0 0 1 0,50.97534a4.30186,4.30186 0 0 1 -4.23709,3.60571l-39.87222,0a4.24784,4.24784 0 0 1 -3.35528,-1.62565z"/>
  <path id="svg_7" fill="#8989fb" d="m473.43731,129.31445a167.48733,167.48733 0 0 1 0,-50.97535a4.30156,4.30156 0 0 1 4.2368,-3.6057l39.87252,0a4.24661,4.24661 0 0 1 3.35526,1.62624a4.31916,4.31916 0 0 1 0.80739,3.70456a102.32847,102.32847 0 0 0 -0.0003,47.52515a4.31805,4.31805 0 0 1 -0.80709,3.70456a4.24661,4.24661 0 0 1 -3.35526,1.62624l-39.87252,0a4.30156,4.30156 0 0 1 -4.2368,-3.6057z"/>
  <path id="svg_8" fill="#8989fb" d="m383.3762,114.20638a4.39088,4.39088 0 0 1 -0.82066,-3.766a104.00137,104.00137 0 0 0 -0.0003,-48.30591a4.392,4.392 0 0 1 0.821,-3.766a4.3176,4.3176 0 0 1 3.41038,-1.65235l40.52726,0a4.37255,4.37255 0 0 1 4.30671,3.66494a170.23877,170.23877 0 0 1 0,51.81279a4.37255,4.37255 0 0 1 -4.30671,3.66494l-40.5273,0a4.3176,4.3176 0 0 1 -3.41038,-1.65241z"/>
  <path id="svg_9" fill="#fff" d="m419.49323,78.53786l-21.34936,0a3.00328,3.00328 0 0 1 -3,-3l0,-1.27393a3.00328,3.00328 0 0 1 3,-3l21.34936,0a3.00328,3.00328 0 0 1 3,3l0,1.27393a3.00328,3.00328 0 0 1 -3,3z"/>
  <path id="svg_10" fill="#fff" d="m419.49323,91.0852l-21.34936,0a3.00328,3.00328 0 0 1 -3,-3l0,-1.27393a3.00328,3.00328 0 0 1 3,-3l21.34936,0a3.00328,3.00328 0 0 1 3,3l0,1.27393a3.00328,3.00328 0 0 1 -3,3z"/>
  <path id="svg_11" fill="#fff" d="m454.03327,160.75952l-20.92334,0a3.00328,3.00328 0 0 1 -3,-3l0,-1.17237a3.00328,3.00328 0 0 1 3,-3l20.92334,0a3.00328,3.00328 0 0 1 3,3l0,1.17237a3.00328,3.00328 0 0 1 -3,3z"/>
  <path id="svg_12" fill="#fff" d="m454.03327,175.57299l-20.92334,0a3.00328,3.00328 0 0 1 -3,-3l0,-1.17236a3.00328,3.00328 0 0 1 3,-3l20.92334,0a3.00328,3.00328 0 0 1 3,3l0,1.17236a3.00328,3.00328 0 0 1 -3,3z"/>
  <path id="svg_13" fill="#fff" d="m454.03327,190.38647l-20.92334,0a3.00328,3.00328 0 0 1 -3,-3l0,-1.17236a3.00328,3.00328 0 0 1 3,-3l20.92334,0a3.00328,3.00328 0 0 1 3,3l0,1.17236a3.00328,3.00328 0 0 1 -3,3z"/>
  <path id="svg_14" fill="#fff" d="m506.00471,100.64477l-20.92359,0a3.00328,3.00328 0 0 1 -3,-3l0,-1.17236a3.00328,3.00328 0 0 1 3,-3l20.92359,0a3.00328,3.00328 0 0 1 3,3l0,1.17236a3.00328,3.00328 0 0 1 -3,3z"/>
  <path id="svg_15" fill="#ccc" d="m141.73592,286.92786l0,2a12.51087,12.51087 0 0 0 12.5,12.5l90,0a12.5046,12.5046 0 0 0 12.5,-12.5l0,-2a12.41033,12.41033 0 0 0 -2.90039,-8a12.86,12.86 0 0 0 -2.10987,-2s-49.48,-1.12 -49.48,-2.5l-48.00974,0a12.51734,12.51734 0 0 0 -12.5,12.5z"/>
  <rect id="svg_16" fill="#ccc" height="84" width="13" y="300.93128" x="193.45948"/>
  <path id="svg_17" fill="#ccc" d="m243.45947,384.47458c0,1.40463 -19.69947,0.54331 -44,0.54331s-44,0.86132 -44,-0.54331s19.69947,-12.5433 44,-12.5433s44,11.13867 44,12.5433z"/>
  <path id="svg_18" fill="#a0616a" d="m225.58647,285.23151a10.74268,10.74268 0 0 0 -3.80712,-16.02665l-27.55286,-93.88523l-20.9809,10.27566l33.6809,89.055a10.80091,10.80091 0 0 0 18.66,10.58124l-0.00002,-0.00002z"/>
  <path id="svg_19" fill="#8989fb" d="m200.46851,190.99848l-23.48261,6.35682a4.81688,4.81688 0 0 1 -6.04231,-4.08553l-2.83827,-24.08747a13.37737,13.37737 0 0 1 25.84551,-6.91524l9.674,22.15579a4.81687,4.81687 0 0 1 -3.1563,6.57563l-0.00002,0z"/>
  <polygon id="svg_20" fill="#a0616a" points="231.724 374.629 243.983 374.628 249.816 342.832 231.722 342.832 231.724 374.629"/>
  <path id="svg_21" fill="#2f2e41" d="m228.59641,370.6262l24.1438,-0.001l0.001,0a15.38605,15.38605 0 0 1 15.3865,15.38625l0,0.5l-39.53051,0.00147l-0.00079,-15.88672z"/>
  <path id="svg_22" fill="#2f2e41" d="m245.95415,357.5782q-0.21425,0 -0.43018,-0.0205l-16.96655,-1.23536a4.49993,4.49993 0 0 1 -3.80933,-6.02929l22.70654,-51.01465a3.49812,3.49812 0 0 0 -0.19628,-2.79883a3.45079,3.45079 0 0 0 -2.21119,-1.75976c-10.67724,-2.791 -38.072,-10.22266 -61.78637,-18.918c-10.15992,-3.72559 -16.55884,-9.10938 -19.0188,-16.002c-3.24317,-9.08691 1.55469,-17.374 1.7605,-17.72168l0.16088,-0.27246l22.3147,2.02832l24.19116,2.05762l53.01348,28.4278a20.086,20.086 0 0 1 8.81861,25.78418l-24.44092,54.80762a4.4969,4.4969 0 0 1 -4.10625,2.66699z"/>
  <circle id="svg_23" fill="#a0616a" r="24.56103" cy="118.34393" cx="192.35811"/>
  <polygon id="svg_24" fill="#a0616a" points="224.724 373.629 236.983 373.628 242.816 341.832 224.722 341.832 224.724 373.629"/>
  <path id="svg_25" fill="#2f2e41" d="m221.59641,369.6262l24.1438,-0.001l0.001,0a15.38605,15.38605 0 0 1 15.3865,15.38625l0,0.5l-39.53051,0.00147l-0.00079,-15.88672z"/>
  <path id="svg_26" fill="#2f2e41" d="m238.95415,360.5782q-0.21425,0 -0.43018,-0.0205l-16.96655,-1.23536a4.49993,4.49993 0 0 1 -3.80933,-6.02929l22.70654,-51.01465a3.49812,3.49812 0 0 0 -0.19628,-2.79883a3.45079,3.45079 0 0 0 -2.21119,-1.75976c-10.67724,-2.791 -38.072,-10.22266 -61.78637,-18.918c-10.15992,-3.72559 -16.55884,-9.10938 -19.0188,-16.002c-3.24317,-9.08691 1.55469,-17.374 1.7605,-17.72168l0.16088,-0.27246l22.3147,2.02832l24.19116,2.05762l53.01348,28.4278a20.086,20.086 0 0 1 8.81861,25.78418l-24.44092,54.80762a4.4969,4.4969 0 0 1 -4.10625,2.66699z"/>
  <path id="svg_27" fill="#8989fb" d="m199.93291,156.83211l-26,-9s-16.322,12.54 -8.481,43.64856a77.01216,77.01216 0 0 1 -3.40009,48.32025a49.7787,49.7787 0 0 1 -2.61889,5.53119s29,35 56,9l-10.5,-50.5s16.49998,-33.5 -5.00002,-47z"/>
  <path id="svg_28" fill="#2f2e41" d="m195.40752,143.74025c-3.49562,-5.2323 -6.25434,-12.48756 -2.40565,-17.4659c3.79908,-4.91417 11.29215,-4.19018 17.11054,-6.36467c8.104,-3.02866 12.80409,-12.5493 11.33824,-21.07564s-8.31031,-15.59442 -16.46405,-18.48644s-17.34838,-1.95148 -25.33312,1.37886c-9.82931,4.0997 -18.26114,12.03028 -21.79685,22.07626s-1.6456,22.10807 5.68929,29.82962c7.8638,8.27835 20.20556,10.48454 31.62276,10.35068"/>
  <path id="svg_29" fill="#2f2e41" d="m172.56063,99.10767c-4.40483,3.58588 -11.12526,1.99318 -15.85359,-1.15387s-8.56507,-7.62825 -13.681,-10.09566c-9.01922,-4.35 -19.92379,-1.45825 -28.70172,3.36009s-16.55915,11.475 -25.83123,15.25617s-21.10394,3.96808 -28.12485,-3.17161a25.732,25.732 0 0 0 37.7101,30.37145c10.1594,-6.18838 15.77105,-19.1637 27.16592,-22.57932c6.30551,-1.89008 13.07633,-0.36778 19.44917,1.281s13.01783,3.43041 19.44912,2.02674s12.447,-7.18311 11.6288,-13.71475l-3.21072,-1.58024z"/>
  <path id="svg_30" fill="#ff6584" d="m252.51429,328.53456a167.50573,167.50573 0 0 1 0,-50.97534a4.30257,4.30257 0 0 1 4.23709,-3.60571l39.87252,0a4.24659,4.24659 0 0 1 3.35526,1.62625a4.31918,4.31918 0 0 1 0.8074,3.70455a102.3282,102.3282 0 0 0 -0.0003,47.52515a4.31808,4.31808 0 0 1 -0.8071,3.70456a4.24662,4.24662 0 0 1 -3.35526,1.62625l-39.87252,0a4.30257,4.30257 0 0 1 -4.23709,-3.60571z"/>
  <path id="svg_31" fill="#fff" d="m284.35383,298.63012l-20.92359,0a3.00328,3.00328 0 0 1 -3,-3l0,-1.17187a3.00328,3.00328 0 0 1 3,-3l20.92359,0a3.00328,3.00328 0 0 1 3,3l0,1.17187a3.00328,3.00328 0 0 1 -3,3z"/>
  <path id="svg_32" fill="#fff" d="m284.35383,310.97486l-20.92359,0a3.00329,3.00329 0 0 1 -3,-3l0,-1.17237a3.00329,3.00329 0 0 1 3,-3l20.92359,0a3.00329,3.00329 0 0 1 3,3l0,1.17237a3.00329,3.00329 0 0 1 -3,3z"/>
  <path id="svg_33" fill="#a0616a" d="m262.99953,280.73217a10.7427,10.7427 0 0 0 -7.69047,-14.56723l-50.13535,-84.02408l-17.74827,15.19166l54.86228,77.816a10.8009,10.8009 0 0 0 20.71182,5.58366l-0.00001,-0.00001z"/>
  <path id="svg_34" fill="#8989fb" d="m215.13498,195.76301l-21.14973,12.02212a4.81688,4.81688 0 0 1 -6.87142,-2.44636l-8.76627,-22.61447a13.37737,13.37737 0 0 1 23.29815,-13.15318l14.90259,19.03622a4.81689,4.81689 0 0 1 -1.41334,7.15567l0.00002,0z"/>
 </g>
</svg>